# WaveFront *.obj file (generated by Cinema 4D)

mtllib ./A18-Pangar_Base_button_light.mtl

v 0.38381001353264 1.08748805522919 0.03210499882698
v 0.36589398980141 1.12374997138977 0.09237000346184
v 0.35032001137733 1.14454698562622 0.12706600129604
v 0.3743439912796 1.10934197902679 0.06839200109243
v 0.54579401016235 1.04957795143127 0.08024500310421
v 0.52032798528671 1.10220503807068 0.1677680015564
v 0.49724200367928 1.13230299949646 0.2179239988327
v 0.46995380520821 1.10254728794098 0.11941878497601
v 0.47162219882011 1.10458588600159 0.12485966086388
v 0.47936987876892 1.10020756721497 0.12192602455616
v 0.47389787435532 1.10073029994965 0.11876428872347
v 0.46298059821129 1.09675538539886 0.10223575681448
v 0.46015301346779 1.09787046909332 0.10232307761908
v 0.44377961754799 1.1094434261322 0.1132488399744
v 0.44735589623451 1.11055159568787 0.11826811730862
v 0.44098469614983 1.1282559633255 0.14940801262856
v 0.43523523211479 1.13115358352661 0.1508691161871
v 0.44383323192596 1.13168203830719 0.15858632326126
v 0.44243159890175 1.12909042835236 0.15222519636154
v 0.45017936825752 1.10985624790192 0.11903255432844
v 0.44515672326088 1.10856628417969 0.11252579092979
v 0.4738065302372 1.07985711097717 0.07617865502834
v 0.4684790968895 1.07963478565216 0.07161098718643
v 0.46393406391144 1.08046388626099 0.06978914141655
v 0.45682036876678 1.08513212203979 0.07380321621895
v 0.45110854506493 1.08763802051544 0.07449565827847
v 0.44637861847878 1.08905291557312 0.07372426986694
v 0.40881508588791 1.11776328086853 0.10318896919489
v 0.41535446047783 1.11686146259308 0.1064031124115
v 0.43272498250008 1.11005413532257 0.10595425963402
v 0.43530932068825 1.10783743858337 0.10343546420336
v 0.42768540978432 1.11002361774445 0.10199960321188
v 0.41590535640717 1.11463177204132 0.10228711366653
v 0.44542530179024 1.092289686203 0.07958050817251
v 0.45226165652275 1.09010410308838 0.08040929585695
v 0.45725071430206 1.08773040771484 0.07942791283131
v 0.46404787898064 1.08707225322723 0.08333734422922
v 0.46875041723251 1.08523261547089 0.0832223072648
v 0.47289636731148 1.08213341236115 0.08011194318533
v 0.4917399585247 1.07671356201172 0.08362698554993
v 0.4906390607357 1.07894420623779 0.08732019364834
v 0.49888890981674 1.07890021800995 0.09360263496637
v 0.50247097015381 1.07241952419281 0.08316940069199
# 43 vertices

vn 0.32223758101463 0.84976780414581 -0.41720241308212
vn 0.32224258780479 0.84976452589035 -0.41720494627953
vn 0.32223969697952 0.84976661205292 -0.41720303893089
vn 0.32222259044647 0.84977513551712 -0.41719880700111
vn 0.32223033905029 0.84977054595947 -0.41720217466354
vn 0.32222533226013 0.84977352619171 -0.41720005869865
vn 0.32223775982857 0.84976959228516 -0.41719859838486
vn 0.32223895192146 0.84977000951767 -0.41719686985016
vn 0.32224005460739 0.84976637363434 -0.41720315814018
vn 0.31311360001564 0.8641522526741 -0.39395520091057
vn 0.30845442414284 0.87107521295547 -0.38220939040184
vn 0.31906926631927 0.85911309719086 -0.40014946460724
vn 0.32516828179359 0.85108137130737 -0.41222107410431
vn 0.32404431700706 0.84539943933487 -0.42461165785789
vn 0.32419243454933 0.85064691305161 -0.41388294100761
vn 0.30832377076149 0.87159901857376 -0.38111886382103
vn 0.32224422693253 0.84976768493652 -0.41719722747803
vn 0.3222408592701 0.84976571798325 -0.41720378398895
vn 0.32223942875862 0.84976446628571 -0.41720753908157
vn 0.32223373651505 0.84976887702942 -0.41720294952393
vn 0.32224762439728 0.8497696518898 -0.4171906709671
vn 0.3222484588623 0.84975945949554 -0.41721072793007
vn 0.32223963737488 0.84976488351822 -0.41720646619797
vn 0.32224181294441 0.849764585495 -0.41720545291901
vn 0.32223358750343 0.84976828098297 -0.41720432043076
vn 0.32224065065384 0.84976375102997 -0.41720801591873
vn 0.32223689556122 0.84976595640182 -0.41720646619797
vn 0.32223606109619 0.84976971149445 -0.41719967126846
vn 0.32223498821259 0.84977054595947 -0.41719853878021
vn 0.32224240899086 0.84976649284363 -0.41720101237297
vn 0.32223936915398 0.84976661205292 -0.41720336675644
vn 0.32223963737488 0.84976601600647 -0.41720426082611
vn 0.32223170995712 0.84976434707642 -0.41721379756927
vn 0.32224130630493 0.84976899623871 -0.4171969294548
vn 0.3222391307354 0.84976768493652 -0.41720113158226
vn 0.32223764061928 0.84976905584335 -0.41719943284988
vn 0.32223871350288 0.84976714849472 -0.41720271110535
vn 0.32224720716476 0.84976053237915 -0.41720962524414
vn 0.32224172353745 0.84976595640182 -0.41720271110535
vn 0.32224071025848 0.84976333379745 -0.41720882058144
vn 0.32223096489906 0.84977096319199 -0.41720080375671
vn 0.3222142457962 0.84977918863297 -0.41719698905945
# 42 normals

vt 0.92357385158539 0.08014440536499 0
vt 0.86536026000977 0.14180660247803 0
vt 0.88178765773773 0.15016746520996 0
vt 0 1 0
vt 0.84216523170471 0.23565399646759 0
vt 0.87644362449646 0.22897326946259 0
vt 0.86575281620026 0.22226750850677 0
vt 0.96575105190277 0.06267654895782 0
vt 0.95115303993225 0.00111222267151 0
vt 0.97198581695557 0.00181567668915 0
vt 0.14521256089211 0.29473865032196 0
vt 0.66959822177887 0.91587686538696 0
vt 0.7587696313858 0.79456406831741 0
vt 0.82124936580658 0.71813142299652 0
vt 0.94063067436218 0.59771531820297 0
vt 0.4076817035675 0.02456760406494 0
vt 0.01705918088555 0.48840737342834 0
vt 0.87925565242767 0.18570017814636 0
vt 0.83687400817871 0.15272343158722 0
vt 0.82037806510925 0.19300138950348 0
vt 0.99924945831299 0.03317701816559 0
vt 0.98522078990936 0.05428791046143 0
vt 0.83470571041107 0.20500230789185 0
vt 0.99894034862518 0.01372635364532 0
vt 0.83974134922028 0.14902579784393 0
vt 0.87086617946625 0.17306959629059 0
vt 0.93907284736633 0.08830869197845 0
vt 0.92625045776367 0.06374275684357 0
vt 0.95174288749695 0.08297550678253 0
vt 0.93336021900177 0.05622386932373 0
vt 0.92570352554321 0.03130519390106 0
vt 0.91359972953796 0.06904029846191 0
vt 0.9026312828064 0.04401338100433 0
vt 0.88425672054291 0.07669472694397 0
vt 0.88212311267853 0.04840707778931 0
vt 0.78495121002197 0.22956275939941 0
vt 0.75635397434235 0.24553060531616 0
vt 0.78694689273834 0.24924576282501 0
vt 0.83372676372528 0.20855259895325 0
vt 0.86698436737061 0.20234835147858 0
vt 0.85884380340576 0.21815156936646 0
vt 0.97478544712067 0.0646767616272 0
vt 0.9356164932251 0.08437240123749 0
vt 0.84020018577576 0.2284209728241 0
# 44 texture coordinates

o 4_DHD_symbols_outer_Cylinder
usemtl Symbols
f 8/3/3 11/2/2 12/1/1
f 15/7/6 20/6/5 21/5/4
f 23/10/9 24/9/8 37/8/7
f 2/13/12 3/12/11 6/11/10
f 5/16/15 1/15/14 4/14/13
f 3/12/11 7/17/16 6/11/10
f 5/16/15 4/14/13 2/13/12
f 6/11/10 5/16/15 2/13/12
f 41/20/17 42/19/18 43/18/17
f 23/10/9 38/22/20 39/21/19
f 40/23/21 41/20/17 43/18/17
f 22/24/22 23/10/9 39/21/19
f 9/26/24 10/25/23 11/2/2
f 20/6/5 15/7/6 16/27/25
f 19/29/27 16/27/25 17/28/26
f 25/31/29 36/30/28 37/8/7
f 26/33/31 35/32/30 36/30/28
f 26/33/31 27/35/33 34/34/32
f 28/37/35 33/36/34 34/34/32
f 32/39/37 33/36/34 29/38/36
f 30/41/39 31/40/38 32/39/37
f 28/37/35 29/38/36 33/36/34
f 8/3/3 9/26/24 11/2/2
f 19/29/27 20/6/5 16/27/25
f 18/42/40 19/29/27 17/28/26
f 24/9/8 25/31/29 37/8/7
f 25/31/29 26/33/31 36/30/28
f 35/32/30 26/33/31 34/34/32
f 27/35/33 28/37/35 34/34/32
f 30/41/39 32/39/37 29/38/36
f 13/43/41 8/3/3 12/1/1
f 14/44/42 15/7/6 21/5/4
f 38/22/20 23/10/9 37/8/7

