# WaveFront *.obj file (generated by Cinema 4D)

mtllib ./Medieval_planet_(demons)_button_light.mtl

v 0.38381001353264 1.08748805522919 0.03210499882698
v 0.36589398980141 1.12374997138977 0.09237000346184
v 0.35032001137733 1.14454698562622 0.12706600129604
v 0.3743439912796 1.10934197902679 0.06839200109243
v 0.54579401016235 1.04957795143127 0.08024500310421
v 0.52032798528671 1.10220503807068 0.1677680015564
v 0.49724200367928 1.13230299949646 0.2179239988327
v 0.40392658114433 1.13324892520905 0.1315139234066
v 0.40729033946991 1.128173828125 0.12337440997362
v 0.40810343623161 1.12255167961121 0.11205097287893
v 0.43003565073013 1.10890769958496 0.10037421435118
v 0.47236812114716 1.08634614944458 0.08586856722832
v 0.46045655012131 1.08638727664948 0.07652451843023
v 0.44687473773956 1.08800935745239 0.06922303885221
v 0.44725689291954 1.08687090873718 0.06710248440504
v 0.46262729167938 1.08503043651581 0.07535514980555
v 0.47480267286301 1.0856431722641 0.08629968762398
v 0.48434156179428 1.08185851573944 0.08579658716917
v 0.48397499322891 1.08437871932983 0.09087076038122
v 0.40915006399155 1.12928986549377 0.12722267210484
v 0.47884574532509 1.08603537082672 0.09033581614494
v 0.47500729560852 1.08743679523468 0.09027964621782
v 0.47071218490601 1.0891706943512 0.09056963771582
v 0.46520310640335 1.09164941310883 0.09148373454809
v 0.45686668157578 1.09575414657593 0.09362030774355
v 0.45293048024178 1.09780740737915 0.09487427026033
v 0.4310265481472 1.11003565788269 0.10355985164642
v 0.41826248168945 1.11808288097382 0.11058246344328
v 0.41031277179718 1.12287878990173 0.1144966557622
# 29 vertices

vn 0.31906926631927 0.85911309719086 -0.40014946460724
vn 0.32516828179359 0.85108137130737 -0.41222107410431
vn 0.32419240474701 0.85064691305161 -0.41388294100761
vn 0.31311362981796 0.8641522526741 -0.39395520091057
vn 0.30845442414284 0.87107521295547 -0.38220939040184
vn 0.32404431700706 0.84539943933487 -0.42461165785789
vn 0.30832377076149 0.87159901857376 -0.38111886382103
vn 0.31906858086586 0.85778814554214 -0.40298250317574
vn 0.31908509135246 0.85777944326401 -0.40298762917519
vn 0.31907030940056 0.85779213905334 -0.40297257900238
vn 0.31908631324768 0.85778373479843 -0.40297770500183
vn 0.31907925009727 0.85778486728668 -0.40298104286194
vn 0.31908175349236 0.85778546333313 -0.40297770500183
vn 0.31909367442131 0.85777032375336 -0.4030002951622
vn 0.31908720731735 0.85777717828751 -0.40299087762833
vn 0.31908652186394 0.85778993368149 -0.40296423435211
vn 0.31908550858498 0.85778605937958 -0.40297368168831
vn 0.3190790116787 0.85778594017029 -0.40297883749008
vn 0.3190883398056 0.8577920794487 -0.40295839309692
vn 0.31909927725792 0.85780012607574 -0.40293261408806
vn 0.31906592845917 0.85778874158859 -0.40298315882683
vn 0.31907513737679 0.85778284072876 -0.40298864245415
vn 0.31907796859741 0.8577846288681 -0.40298244357109
vn 0.31906417012215 0.85779374837875 -0.40297409892082
vn 0.31907868385315 0.85778337717056 -0.40298449993134
vn 0.31907695531845 0.85778176784515 -0.40298926830292
vn 0.31908524036407 0.85778480768204 -0.40297627449036
vn 0.31909117102623 0.85778468847275 -0.40297186374664
vn 0.3190766274929 0.85778313875198 -0.40298673510551
# 29 normals

vt 0.7587696313858 0.79456406831741 0
vt 0.82124936580658 0.71813142299652 0
vt 0.4076817035675 0.02456760406494 0
vt 0 1 0
vt 0.14521256089211 0.29473865032196 0
vt 0.66959822177887 0.91587686538696 0
vt 0.94063067436218 0.59771531820297 0
vt 0.01705918088555 0.48840737342834 0
vt 0.95280539989471 0.03933310508728 0
vt 0.97634303569794 0.07912528514862 0
vt 0.98172879219055 0.07242774963379 0
vt 0.78309082984924 0.2397426366806 0
vt 0.8217875957489 0.23932385444641 0
vt 0.81501793861389 0.23180520534515 0
vt 0.99188220500946 0.12385129928589 0
vt 0.99927985668182 0.12304222583771 0
vt 0.87573802471161 0.17159485816956 0
vt 0.86566412448883 0.16782093048096 0
vt 0.83350086212158 0.20719397068024 0
vt 0.91636395454407 0.08729135990143 0
vt 0.90951693058014 0.09961044788361 0
vt 0.93970286846161 0.03006553649902 0
vt 0.93586456775665 0.04371058940887 0
vt 0.94207072257996 0.0178108215332 0
vt 0.95297491550446 0.03148472309113 0
vt 0.96102452278137 0.00115394592285 0
vt 0.92911517620087 0.06110846996307 0
vt 0.77136206626892 0.23306965827942 0
vt 0.75342404842377 0.24891126155853 0
vt 0.9436856508255 0.00134611129761 0
# 30 texture coordinates

o 4_DHD_symbols_outer_Cylinder
usemtl Symbols
f 5/3/3 4/2/2 2/1/1
f 2/1/1 3/6/5 6/5/4
f 6/5/4 5/3/3 2/1/1
f 5/3/3 1/7/6 4/2/2
f 3/6/5 7/8/7 6/5/4
f 16/11/10 13/10/9 12/9/8
f 29/14/13 10/13/12 9/12/11
f 15/16/15 14/15/14 13/10/9
f 28/19/18 27/18/17 11/17/16
f 11/17/16 26/21/20 25/20/19
f 12/9/8 23/23/22 22/22/21
f 18/26/25 17/25/24 21/24/23
f 22/22/21 21/24/23 17/25/24
f 24/27/26 23/23/22 12/9/8
f 25/20/19 24/27/26 12/9/8
f 11/17/16 27/18/17 26/21/20
f 10/13/12 29/14/13 28/19/18
f 9/12/11 8/29/28 20/28/27
f 16/11/10 15/16/15 13/10/9
f 10/13/12 28/19/18 11/17/16
f 12/9/8 11/17/16 25/20/19
f 17/25/24 12/9/8 22/22/21
f 19/30/29 18/26/25 21/24/23
f 17/25/24 16/11/10 12/9/8
f 20/28/27 29/14/13 9/12/11

