# WaveFront *.obj file (generated by Cinema 4D)

mtllib ./A23-Shades_of_Grey_button.mtl

v 0.38157200813293 1.08038353919983 0.03502050042152
v 0.34907901287079 1.14398801326752 0.12814000248909
v 0.34794101119041 1.13922095298767 0.13102099299431
v 0.49724200367928 1.13230299949646 0.2179239988327
v 0.52032798528671 1.10220503807068 0.1677680015564
v 0.36363300681114 1.11662304401398 0.09585399925709
v 0.36337301135063 1.1168999671936 0.09557200223207
v 0.34775099158287 1.13810300827026 0.13134199380875
v 0.34808099269867 1.13749003410339 0.13051599264145
v 0.5460000038147 1.04875600337982 0.07907199859619
v 0.49500301480293 1.12524604797363 0.22137400507927
v 0.54419499635696 1.04203701019287 0.08240900188684
v 0.5442870259285 1.04298603534698 0.08354700356722
v 0.51847100257874 1.09526705741882 0.17130100727081
v 0.51905000209808 1.09611701965332 0.17101399600506
v 0.49437600374222 1.12638401985168 0.22256000339985
v 0.38339298963547 1.08735203742981 0.03212999925017
v 0.34748500585556 1.13866794109344 0.13077799975872
v 0.49523198604584 1.12706899642944 0.22240099310875
v 0.36589398980141 1.12374997138977 0.09237000346184
v 0.37001198530197 1.11642301082611 0.08043599873781
v 0.36335501074791 1.117830991745 0.09498599916697
v 0.34994599223137 1.14433705806732 0.12696799635887
v 0.34992501139641 1.14495301246643 0.12799300253391
v 0.38157099485397 1.08117294311523 0.03516868874431
v 0.5460609793663 1.04926896095276 0.08044700324535
v 0.54626798629761 1.0476039648056 0.07970599830151
v 0.3743439912796 1.10934197902679 0.06839200109243
v 0.54609197378159 1.04832398891449 0.08094900101423
v 0.38334900140762 1.0864599943161 0.03147400170565
v 0.52058500051498 1.10192799568176 0.16804499924183
v 0.36490300297737 1.12271094322205 0.09260000288486
v 0.52059799432755 1.10099697113037 0.16862800717354
v 0.49629500508308 1.13253998756409 0.21967999637127
v 0.46560579538345 1.07505750656128 0.08890713751316
v 0.41118502616882 1.11921536922455 0.10745181888342
v 0.460767775774 1.12039279937744 0.14921772480011
v 0.48120328783989 1.08641397953033 0.09307126700878
v 0.42748469114304 1.09742724895477 0.07397976517677
v 0.43096712231636 1.10291409492493 0.08841641247272
v 0.45666202902794 1.09817552566528 0.09867510199547
v 0.44797614216805 1.11217844486237 0.12160435318947
v 0.42396092414856 1.11190712451935 0.10201153159142
v 0.40722236037254 1.10856246948242 0.11245645582676
v 0.45680510997772 1.10973989963531 0.15422235429287
v 0.47724062204361 1.0757611989975 0.0980759114027
v 0.42352202534676 1.08677434921265 0.07898440212011
v 0.42700445652008 1.0922611951828 0.09342104941607
v 0.45269936323166 1.08752262592316 0.10367973893881
v 0.44401350617409 1.10152566432953 0.12660899758339
v 0.41999825835228 1.10125422477722 0.10701617598534
v 0.41461560130119 1.11824285984039 0.10809809714556
v 0.45978528261185 1.11931550502777 0.14614666998386
v 0.47874599695206 1.08778893947601 0.09405230730772
v 0.43003171682358 1.09777629375458 0.07673933357
v 0.43254873156548 1.10174190998077 0.08717372268438
v 0.45911380648613 1.0968428850174 0.09777982532978
v 0.44894927740097 1.11322975158691 0.12461245059967
v 0.42387467622757 1.11294639110565 0.10415536165237
v 0.42405515909195 1.11268210411072 0.10272760689259
v 0.42403969168663 1.112868309021 0.10311187058687
v 0.41272246837616 1.11916470527649 0.10755332559347
v 0.41333737969398 1.11899042129517 0.10766916722059
v 0.46049419045448 1.12029922008514 0.14779372513294
v 0.46031808853149 1.12010610103607 0.14724324643612
v 0.48032450675964 1.08732676506042 0.09331015497446
v 0.47988402843475 1.08757317066193 0.09348600357771
v 0.44867956638336 1.11314678192139 0.12321428954601
v 0.44850513339043 1.11295831203461 0.12267510592937
v 0.45823726058006 1.09773826599121 0.09798351675272
v 0.45779779553413 1.09797716140747 0.0981439948082
v 0.43202930688858 1.10257148742676 0.08751998096704
v 0.43174582719803 1.10278153419495 0.08774273097515
v 0.42911610007286 1.09798145294189 0.07544316351414
v 0.4286595582962 1.09791898727417 0.07494851946831
# 75 vertices

vn 0.31933170557022 0.85256314277649 -0.41371893882751
vn -0.85659825801849 0.24998860061169 -0.45138138532639
vn -0.90032315254211 0.05572417750955 -0.43163990974426
vn -0.94431525468826 -0.06424237787724 -0.3227099776268
vn 0.95151829719543 0.17267847061157 0.25454887747765
vn 0.9406846165657 0.03137749060988 0.33782836794853
vn 0.91394966840744 0.0471467114985 0.4030796289444
vn 0.77284127473831 0.62838286161423 -0.08860761672258
vn 0.78884738683701 0.60035979747772 -0.1314837038517
vn 0.12530702352524 0.98991882801056 -0.0660213753581
vn -0.78519874811172 -0.60561001300812 0.12922620773315
vn -0.77098143100739 -0.63017904758453 0.09198983758688
vn -0.95205384492874 0.01460211444646 -0.30558201670647
vn -0.93328559398651 0.08957856148481 -0.34778392314911
vn 0.91629940271378 -0.25429773330688 0.30939948558807
vn 0.85140711069107 -0.23291817307472 0.46995231509209
vn 0.96653765439987 -0.04995804652572 0.25161343812943
vn 0.13950516283512 -0.48373040556908 -0.86402726173401
vn 0.15360073745251 -0.44875481724739 -0.88035559654236
vn 0.13860048353672 -0.48833921551704 -0.86157685518265
vn -0.93623411655426 -0.12664148211479 -0.32776135206223
vn -0.3464275598526 -0.70646607875824 0.61716574430466
vn 0.78040313720703 -0.35866406559944 0.51218259334564
vn 0.89133650064468 -0.04870887473226 0.450718075037
vn -0.93928849697113 0.06214190647006 -0.33745455741882
vn -0.95687568187714 -0.09730489552021 -0.27371671795845
vn -0.78197902441025 0.43126407265663 -0.45002254843712
vn -0.88438338041306 0.15356014668941 -0.44077822566032
vn 0.94805979728699 -0.27778136730194 0.15498392283916
vn 0.99326074123383 -0.05793058127165 0.10038521885872
vn -0.57715529203415 0.43083897233009 0.6937358379364
vn -0.3804053068161 0.42909762263298 0.81924790143967
vn -0.6015619635582 0.31324869394302 0.73484593629837
vn 0.98636829853058 0.13290004432201 0.09703104943037
vn -0.37490716576576 0.50076591968536 0.78017824888229
vn -0.74714076519012 0.4196352660656 -0.51544815301895
vn -0.45138043165207 0.70110386610031 -0.55200469493866
vn 0.30652749538422 0.88729250431061 -0.34460547566414
vn -0.74958664178848 0.37994384765625 0.54199874401093
vn -0.77871453762054 0.45005667209625 0.43709573149681
vn 0.13236559927464 -0.50092017650604 -0.85531175136566
vn 0.67077648639679 -0.45311632752419 0.58714938163757
vn 0.75460946559906 0.65459626913071 -0.04547635093331
vn -0.72703063488007 0.58184617757797 -0.36452895402908
vn -0.75507378578186 -0.65336644649506 0.05455178767443
vn 0.97979128360748 0.16925470530987 -0.10659148544073
vn -0.91941678524017 -0.35994899272919 -0.15846017003059
vn -0.89658385515213 -0.43371969461441 -0.08958051353693
vn -0.8942853808403 -0.44675594568253 -0.02574486657977
vn 0.56411439180374 -0.56521785259247 0.60191679000854
vn 0.92692053318024 0.15415047109127 0.34213426709175
vn 0.35338321328163 0.54284226894379 -0.76186782121658
vn -0.13947567343712 0.83089011907578 -0.53867262601852
vn -0.134381249547 0.82312387228012 -0.55173254013062
vn -0.42248219251633 0.51744019985199 0.74415349960327
vn 0.91274523735046 0.02544046007097 0.40773648023605
vn 0.07365231961012 0.0169966891408 0.99713909626007
vn -0.37029442191124 -0.78692048788071 0.49359717965126
vn -0.3528091609478 -0.81333208084106 0.46261936426163
vn 0.3101364672184 0.86954486370087 -0.38432690501213
vn 0.31662818789482 0.86432141065598 -0.39076235890388
vn -0.38705286383629 -0.75896424055099 0.52360612154007
vn -0.07927463948727 -0.02264989726245 -0.99659550189972
vn -0.01449418719858 -0.86087161302567 0.50861573219299
vn -0.431362003088 0.49324029684067 0.75540769100189
vn 0.35912492871284 0.80318880081177 -0.475307315588
vn -0.81413906812668 0.36953347921371 -0.44790905714035
vn 0.14130085706711 -0.47448214888573 -0.8688502907753
vn -0.21537259221077 0.46809205412865 0.85703235864639
vn 0.32308477163315 0.85900211334229 -0.39715445041656
vn 0.31908220052719 0.8578035235405 -0.40293890237808
vn 0.3190977871418 0.8578063249588 -0.40292066335678
vn 0.31906324625015 0.85782122612 -0.40291598439217
vn -0.48507514595985 -0.21747449040413 -0.84699881076813
vn -0.4850752055645 -0.21747417747974 -0.84699881076813
vn -0.55984979867935 0.51368701457977 0.65014910697937
vn -0.55984991788864 0.51368689537048 0.65014916658401
vn 0.89988744258881 -0.14083075523376 0.41275840997696
vn 0.89988720417023 -0.14083106815815 0.41275861859322
vn 0.20560422539711 -0.47773480415344 -0.85410571098328
vn 0.20560449361801 -0.4777324795723 -0.85410684347153
vn -0.92184889316559 0.37959912419319 0.07809802144766
vn -0.92184883356094 0.37959909439087 0.07809801399708
vn -0.24546541273594 0.48549625277519 0.83907097578049
vn -0.24546539783478 0.48549625277519 0.83907097578049
vn -0.89641588926315 0.1351460069418 -0.42210707068443
vn -0.89641588926315 0.13514538109303 -0.42210698127747
vn 0.54575997591019 -0.51393532752991 -0.66182816028595
vn 0.54576003551483 -0.51393383741379 -0.66182935237885
vn 0.04391008615494 0.99674385786057 -0.06762832403183
vn 0.04391821473837 0.99674278497696 -0.06763888895512
vn 0.68361186981201 0.7088206410408 -0.17392009496689
vn 0.68359684944153 0.70883214473724 -0.17393213510513
vn 0.39485883712769 0.55337065458298 -0.7333944439888
vn 0.39485764503479 0.55338931083679 -0.73338097333908
vn 0.69489747285843 0.60037904977798 -0.39580607414246
vn 0.69494169950485 0.60032975673676 -0.39580321311951
vn 0.19477701187134 0.98068833351135 0.01767467521131
vn 0.1947948038578 0.98068577051163 0.01762061938643
vn -0.11324100196362 0.83123540878296 -0.54426497220993
vn -0.11323358118534 0.83123725652695 -0.54426348209381
vn 0.53431904315948 0.5408900976181 -0.64956992864609
vn 0.53432303667068 0.540880382061 -0.64957469701767
vn 0.50113636255264 0.86524647474289 0.01452878024429
vn 0.50114679336548 0.86523985862732 0.01455555204302
vn -0.11169957369566 0.82871562242508 -0.54841005802155
vn -0.11168683320284 0.82871878147125 -0.54840785264969
vn 0.17707365751266 0.98413550853729 0.01106216851622
vn 0.17706543207169 0.98413664102554 0.01108522899449
vn -0.1229884698987 0.93715810775757 -0.32650971412659
vn -0.12294951081276 0.93715888261795 -0.32652205228806
vn 0.37717494368553 0.55681425333023 -0.740065574646
vn 0.37717467546463 0.55681800842285 -0.74006271362305
vn 0.68518352508545 0.70627558231354 -0.17804035544395
vn 0.68519812822342 0.70626443624496 -0.17802825570107
vn 0.03761697933078 0.99664032459259 -0.07275493443012
vn 0.03758535161614 0.9966441988945 -0.07271634787321
vn 0.07079064100981 0.67229819297791 -0.73688793182373
vn 0.07080569118261 0.67231130599976 -0.7368745803833
vn 0.52807116508484 0.54077613353729 -0.65475344657898
vn 0.52807134389877 0.54077565670013 -0.65475368499756
vn 0.31908917427063 0.85776579380035 -0.40301376581192
vn 0.31903374195099 0.85779881477356 -0.40298706293106
vn 0.31909936666489 0.85778844356537 -0.40295737981796
vn 0.31907248497009 0.85777521133423 -0.40300679206848
vn 0.31909713149071 0.85779178142548 -0.40295213460922
vn 0.31903919577599 0.85780590772629 -0.40296778082848
vn 0.31912013888359 0.85781401395798 -0.40288650989532
vn 0.31909188628197 0.85780733823776 -0.40292310714722
vn 0.31901916861534 0.85781419277191 -0.4029660820961
vn 0.31901523470879 0.85784643888474 -0.4029004573822
vn 0.31905499100685 0.85779905319214 -0.40296977758408
vn 0.31902807950974 0.85779309272766 -0.40300390124321
vn 0.31905454397202 0.85779070854187 -0.40298795700073
vn -0.48507508635521 -0.21747481822968 -0.84699875116348
vn -0.55984967947006 0.51368713378906 0.65014904737473
vn 0.89988750219345 -0.14083041250706 0.41275808215141
vn 0.2056038826704 -0.47773703932762 -0.85410439968109
vn -0.9218487739563 0.37959903478622 0.0780980065465
vn -0.2454654276371 0.48549625277519 0.83907097578049
vn -0.89641565084457 0.13514660298824 -0.42210704088211
vn 0.54575991630554 -0.51393687725067 -0.66182696819305
vn 0.04390195757151 0.99674493074417 -0.06761775910854
vn 0.68362683057785 0.70880913734436 -0.1739080697298
vn 0.39485999941826 0.55335199832916 -0.73340791463852
vn 0.69485324621201 0.60042834281921 -0.39580893516541
vn 0.19475923478603 0.98069089651108 0.01772873103619
vn -0.11324839293957 0.83123338222504 -0.5442664027214
vn 0.53431499004364 0.54089975357056 -0.64956516027451
vn 0.50112587213516 0.86525285243988 0.01450200472027
vn -0.11171231418848 0.82871246337891 -0.5484122633934
vn 0.17708185315132 0.98413419723511 0.0110391061753
vn -0.12302742898464 0.93715727329254 -0.32649737596512
vn 0.37717509269714 0.55681043863297 -0.74006831645966
vn 0.68516892194748 0.70628666877747 -0.17805244028568
vn 0.03764860332012 0.99663627147675 -0.07279350608587
vn 0.070775590837 0.67228507995605 -0.7369013428688
vn 0.5280709862709 0.54077655076981 -0.6547532081604
# 158 normals

vt 0.59138119220734 0.21649479866028 0
vt 0.72285437583923 0.28400754928589 0
vt 0.67762196063995 0.31571006774902 0
vt 0 1 0
vt 0.7492344379425 0.2640266418457 0
vt 0.75144219398499 0.26801896095276 0
vt 0.72223222255707 0.28305125236511 0
vt 0.66230058670044 0.18069076538086 0
vt 0.66187286376953 0.18001878261566 0
vt 0.69963836669922 0.15468657016754 0
vt 0.66247868537903 0.18097066879272 0
vt 0.59404671192169 0.2209734916687 0
vt 0.69141674041748 0.15221202373505 0
vt 0.69276684522629 0.15151810646057 0
vt 0.74598091840744 0.27104449272156 0
vt 0.72266924381256 0.283731341362 0
vt 0.67767208814621 0.3151239156723 0
vt 0.67422717809677 0.31141841411591 0
vt 0.6596451997757 0.17652404308319 0
vt 0.59366428852081 0.2202832698822 0
vt 0.59513407945633 0.21309149265289 0
vt 0.59613353013992 0.21290457248688 0
vt 0.6820792555809 0.31249070167542 0
vt 0.71999728679657 0.27946412563324 0
vt 0.71018147468567 0.28463697433472 0
vt 0.74815964698792 0.26371717453003 0
vt 0.59138631820679 0.21631741523743 0
vt 0.65923035144806 0.17587757110596 0
vt 0.70042514801025 0.15346348285675 0
vt 0.59266871213913 0.22061610221863 0
vt 0.75055211782455 0.26873028278351 0
vt 0.69752979278564 0.14911270141602 0
vt 0.75133562088013 0.2683070898056 0
vt 0.70077395439148 0.29060852527618 0
vt 0.71937823295593 0.27870786190033 0
vt 0.59679573774338 0.21201014518738 0
vt 0.75166863203049 0.26775002479553 0
vt 0.74884474277496 0.26314532756805 0
vt 0.75162220001221 0.26832628250122 0
vt 0.59307765960693 0.22157406806946 0
vt 0.69779992103577 0.14983880519867 0
vt 0.69864153862 0.14861667156219 0
vt 0.68270176649094 0.31192743778229 0
vt 0.67822599411011 0.31578469276428 0
vt 0.6746152639389 0.31079864501953 0
vt 0.7469562292099 0.27108013629913 0
vt 0.64864242076874 0.24589896202087 0
vt 0.74537378549576 0.27171385288239 0
vt 0.81061792373657 0.30444610118866 0
vt 0.80637919902802 0.29249310493469 0
vt 0.80614387989044 0.2928478717804 0
vt 0.8068915605545 0.29193150997162 0
vt 0.81170773506165 0.30513572692871 0
vt 0.82215803861618 0.30132400989532 0
vt 0.76551949977875 0.30510747432709 0
vt 0.76501613855362 0.31395411491394 0
vt 0.76791620254517 0.25378501415253 0
vt 0.75864297151566 0.25335168838501 0
vt 0.80965757369995 0.25354385375977 0
vt 0.80975896120071 0.2448319196701 0
vt 0.80560374259949 0.26638555526733 0
vt 0.81568032503128 0.2695631980896 0
vt 0.78351891040802 0.26598060131073 0
vt 0.78936624526978 0.27059698104858 0
vt 0.78255176544189 0.29140114784241 0
vt 0.78897523880005 0.28653430938721 0
vt 0.80808645486832 0.2862936258316 0
vt 0.80556559562683 0.29353678226471 0
vt 0.78127717971802 0.292316198349 0
vt 0.78046250343323 0.29293179512024 0
vt 0.78257644176483 0.26525497436523 0
vt 0.78190290927887 0.26467192173004 0
vt 0.80487847328186 0.26558220386505 0
vt 0.80432546138763 0.26497066020966 0
vt 0.80802857875824 0.25500202178955 0
vt 0.80706369876862 0.25577068328857 0
vt 0.76944851875305 0.25514829158783 0
vt 0.77018582820892 0.25582182407379 0
vt 0.76728117465973 0.30343174934387 0
vt 0.76811754703522 0.30264174938202 0
vt 0.80990326404572 0.30379998683929 0
vt 0.8088972568512 0.30315315723419 0
vt 0.78171730041504 0.291996717453 0
vt 0.78294801712036 0.26551163196564 0
vt 0.80510926246643 0.26586997509003 0
vt 0.80864441394806 0.25433278083801 0
vt 0.76869583129883 0.25448787212372 0
vt 0.76641476154327 0.30425429344177 0
vt 0.81734186410904 0.28811979293823 0
vt 0.81170231103897 0.31398224830627 0
vt 0.75624471902847 0.30467593669891 0
vt 0.76801753044128 0.24507296085358 0
vt 0.81973111629486 0.25672149658203 0
vt 0.80511516332626 0.27124154567719 0
# 94 texture coordinates

o Default
usemtl DHD
f 1/3/1 6/2/1 13/1/1
f 22/7/4 18/6/3 2/5/2
f 4/10/7 33/9/6 31/8/5
f 26/12/9 5/11/8 31/8/8
f 24/15/10 34/14/10 4/13/10
f 6/2/12 7/16/12 1/3/11
f 22/7/4 30/18/14 25/17/13
f 29/20/17 15/19/16 13/1/15
f 30/23/20 10/22/19 27/21/18
f 23/26/21 21/25/21 32/24/21
f 1/3/22 12/27/22 13/1/22
f 14/28/23 13/1/15 15/19/16
f 4/10/7 34/29/24 33/9/6
f 7/16/26 25/17/13 1/3/25
f 32/24/28 2/5/2 23/26/27
f 34/29/24 15/19/16 33/9/6
f 27/30/30 13/1/15 12/27/29
f 8/33/33 16/32/32 3/31/31
f 33/9/6 26/12/34 31/8/5
f 34/14/35 3/31/31 16/32/32
f 21/25/36 20/35/36 28/34/36
f 30/18/37 32/24/37 21/25/37
f 30/23/38 26/36/38 10/22/38
f 2/5/40 18/6/39 3/37/31
f 1/3/41 30/23/20 27/21/18
f 15/19/16 16/32/42 14/28/23
f 31/8/8 5/11/8 4/10/43
f 22/7/4 32/24/28 30/18/14
f 29/20/17 33/9/6 15/19/16
f 23/26/27 2/5/2 24/38/44
f 9/39/45 7/16/12 6/2/12
f 3/37/31 18/6/39 8/33/33
f 26/12/34 27/30/30 10/40/46
f 18/6/48 22/7/4 9/39/47
f 9/39/47 8/33/49 18/6/48
f 15/19/16 19/41/50 16/32/42
f 14/28/51 16/32/51 11/42/51
f 30/23/52 17/43/52 26/36/52
f 30/23/14 1/3/25 25/44/13
f 28/34/53 17/45/53 21/25/53
f 21/25/54 23/26/54 20/35/54
f 29/20/17 27/30/30 26/12/34
f 34/14/35 2/46/55 3/31/31
f 33/9/6 29/20/17 26/12/34
f 27/30/30 29/20/17 13/1/15
f 34/29/24 19/41/56 15/19/16
f 7/16/26 22/7/4 25/17/13
f 6/2/57 35/47/57 13/1/57
f 16/32/58 8/33/59 9/39/58
f 11/42/61 6/2/61 9/39/60
f 11/42/62 16/32/58 9/39/58
f 13/1/63 35/47/63 6/2/63
f 11/42/64 13/1/64 14/28/64
f 34/14/35 24/15/65 2/46/55
f 22/7/4 2/5/2 32/24/28
f 24/15/66 4/13/66 23/48/66
f 21/25/67 17/45/67 30/18/67
f 22/7/4 7/16/26 9/39/47
f 1/3/41 27/21/18 12/27/68
f 34/29/35 16/32/32 19/41/69
f 11/42/61 13/1/70 6/2/61
f 61/51/73 60/50/72 62/49/71
f 44/54/74 36/53/75 43/52/74
f 45/56/76 37/55/77 36/53/76
f 46/58/78 38/57/79 37/55/78
f 47/60/80 39/59/81 38/57/80
f 48/62/82 40/61/83 39/59/82
f 49/64/84 41/63/85 40/61/84
f 50/66/86 42/65/87 41/63/86
f 51/67/88 43/52/89 42/65/88
f 68/69/90 61/51/91 59/68/90
f 70/71/92 68/69/93 58/70/92
f 72/73/94 70/71/95 57/72/94
f 74/75/96 72/73/97 56/74/96
f 67/77/98 74/75/99 55/76/98
f 65/79/100 67/77/101 54/78/100
f 63/81/102 65/79/103 53/80/102
f 61/51/104 63/81/105 52/82/104
f 41/63/106 42/65/107 69/83/106
f 40/61/108 41/63/109 71/84/108
f 39/59/110 40/61/111 73/85/110
f 38/57/112 39/59/113 75/86/112
f 37/55/114 38/57/115 66/87/114
f 36/53/116 37/55/117 64/88/116
f 43/52/118 36/53/119 62/49/118
f 42/65/120 43/52/121 60/50/120
f 68/69/123 69/83/122 60/50/72
f 70/71/125 71/84/124 69/83/122
f 72/73/127 73/85/126 71/84/124
f 74/75/129 75/86/128 73/85/126
f 67/77/131 66/87/130 75/86/128
f 65/79/133 64/88/132 66/87/130
f 63/81/134 62/49/71 64/88/132
f 63/81/134 61/51/73 62/49/71
f 51/89/135 44/54/74 43/52/74
f 44/90/136 45/56/76 36/53/76
f 45/91/137 46/58/78 37/55/78
f 46/92/138 47/60/80 38/57/80
f 47/93/139 48/62/82 39/59/82
f 48/94/140 49/64/84 40/61/84
f 49/64/141 50/66/86 41/63/86
f 50/66/142 51/67/88 42/65/88
f 58/70/143 68/69/90 59/68/90
f 57/72/144 70/71/92 58/70/92
f 56/74/145 72/73/94 57/72/94
f 55/76/146 74/75/96 56/74/96
f 54/78/147 67/77/98 55/76/98
f 53/80/148 65/79/100 54/78/100
f 52/82/149 63/81/102 53/80/102
f 59/68/150 61/51/104 52/82/104
f 71/84/151 41/63/106 69/83/106
f 73/85/152 40/61/108 71/84/108
f 75/86/153 39/59/110 73/85/110
f 66/87/154 38/57/112 75/86/112
f 64/88/155 37/55/114 66/87/114
f 62/49/156 36/53/116 64/88/116
f 60/50/157 43/52/118 62/49/118
f 69/83/158 42/65/120 60/50/120
f 61/51/73 68/69/123 60/50/72
f 68/69/123 70/71/125 69/83/122
f 70/71/125 72/73/127 71/84/124
f 72/73/127 74/75/129 73/85/126
f 74/75/129 67/77/131 75/86/128
f 67/77/131 65/79/133 66/87/130
f 65/79/133 63/81/134 64/88/132

