# WaveFront *.obj file (generated by Cinema 4D)

mtllib ./A24-klorel's_ship_button_light.mtl

v 0.38381001353264 1.08748805522919 0.03210499882698
v 0.36589398980141 1.12374997138977 0.09237000346184
v 0.35032001137733 1.14454698562622 0.12706600129604
v 0.3743439912796 1.10934197902679 0.06839200109243
v 0.54579401016235 1.04957795143127 0.08024500310421
v 0.52032798528671 1.10220503807068 0.1677680015564
v 0.49724200367928 1.13230299949646 0.2179239988327
v 0.45570486783981 1.12688803672791 0.15907211601734
v 0.46066606044769 1.12369120121002 0.15619564056396
v 0.4544093310833 1.12148773670197 0.14655140042305
v 0.44824025034904 1.09840893745422 0.09254116564989
v 0.45428031682968 1.08533096313477 0.0694857686758
v 0.42429012060165 1.09655344486237 0.06962771713734
v 0.44391542673111 1.10242891311646 0.0976737588644
v 0.44932618737221 1.12476789951324 0.14950878918171
# 15 vertices

vn 0.31907665729523 0.85778534412384 -0.40298190712929
vn 0.31907403469086 0.85778570175171 -0.40298312902451
vn 0.3190780878067 0.85778588056564 -0.40297961235046
vn 0.31311360001564 0.8641522526741 -0.39395520091057
vn 0.30832377076149 0.87159901857376 -0.38111886382103
vn 0.30845442414284 0.87107521295547 -0.38220939040184
vn 0.32516828179359 0.85108137130737 -0.41222107410431
vn 0.32404431700706 0.84539943933487 -0.42461165785789
vn 0.32419240474701 0.85064691305161 -0.41388294100761
vn 0.31906926631927 0.85911303758621 -0.40014946460724
vn 0.31907925009727 0.85778546333313 -0.40297961235046
vn 0.31907922029495 0.85778570175171 -0.40297907590866
vn 0.31907579302788 0.85778522491455 -0.40298315882683
vn 0.3190792798996 0.85778492689133 -0.40298065543175
# 14 normals

vt 0.78359860181808 0.21674942970276 0
vt 0.79042303562164 0.23590481281281 0
vt 0.89810675382614 0.10277044773102 0
vt 0 1 0
vt 0.14521256089211 0.29473865032196 0
vt 0.01705918088555 0.48840737342834 0
vt 0.66959822177887 0.91587686538696 0
vt 0.82124936580658 0.71813142299652 0
vt 0.94063067436218 0.59771531820297 0
vt 0.4076817035675 0.02456760406494 0
vt 0.7587696313858 0.79456406831741 0
vt 0.89707881212234 0.07916688919067 0
vt 0.99653160572052 0.06653463840485 0
vt 0.75761550664902 0.24893200397491 0
vt 0.92465895414352 0.0018413066864 0
vt 0.75093668699265 0.23026394844055 0
# 16 texture coordinates

o 4_DHD_symbols_outer_Cylinder
usemtl Symbols
f 14/3/3 15/2/2 10/1/1
f 3/7/6 7/6/5 6/5/4
f 5/10/9 1/9/8 4/8/7
f 2/11/10 3/7/6 6/5/4
f 6/5/4 5/10/9 2/11/10
f 5/10/9 4/8/7 2/11/10
f 13/13/12 14/3/3 11/12/11
f 10/1/1 15/2/2 8/14/13
f 12/15/14 13/13/12 11/12/11
f 9/16/14 10/1/1 8/14/13
f 11/12/11 14/3/3 10/1/1

