# WaveFront *.obj file (generated by Cinema 4D)

mtllib ./P3B-139_button_light.mtl

v 0.38381001353264 1.08748805522919 0.03210499882698
v 0.36589398980141 1.12374997138977 0.09237000346184
v 0.35032001137733 1.14454698562622 0.12706600129604
v 0.3743439912796 1.10934197902679 0.06839200109243
v 0.54579401016235 1.04957795143127 0.08024500310421
v 0.52032798528671 1.10220503807068 0.1677680015564
v 0.49724200367928 1.13230299949646 0.2179239988327
v 0.44601744413376 1.10689103603363 0.1086964532733
v 0.42889830470085 1.0962210893631 0.07242947071791
v 0.43056079745293 1.09262955188751 0.06610084325075
v 0.4198425412178 1.09834492206573 0.069779984653
v 0.42620477080345 1.0977087020874 0.07346329092979
v 0.44246950745583 1.10830795764923 0.10890336334705
v 0.40868028998375 1.12596666812897 0.11973747611046
v 0.40161195397377 1.12742578983307 0.11724668741226
v 0.40676295757294 1.1306334733963 0.12815293669701
v 0.40986186265945 1.12679183483124 0.12242938578129
v 0.44508111476898 1.10845220088959 0.11127810180187
v 0.47204685211182 1.10444438457489 0.12409846484661
v 0.47081044316292 1.10641551017761 0.12731523811817
v 0.48213464021683 1.10473239421844 0.13269913196564
v 0.48563712835312 1.0991485118866 0.1235865354538
v 0.47431296110153 1.10083162784576 0.11820265650749
v 0.47305798530579 1.10283231735229 0.12146776169538
v 0.41005054116249 1.11145234107971 0.08992708474398
v 0.40787667036057 1.11491799354553 0.09558293968439
v 0.41445395350456 1.11232316493988 0.09526731818914
v 0.43736764788628 1.12622666358948 0.14300532639027
v 0.43620678782463 1.12378132343292 0.1368812173605
v 0.43137755990028 1.12718451023102 0.14030124247074
v 0.46174177527428 1.08772599697113 0.08035235852003
v 0.45533740520477 1.08861422538757 0.07717189192772
v 0.45653945207596 1.09119236469269 0.08361168205738
# 33 vertices

vn 0.3190832734108 0.8577818274498 -0.40298420190811
vn 0.31907853484154 0.85779058933258 -0.40296921133995
vn 0.31907868385315 0.85778784751892 -0.40297499299049
vn 0.31906926631927 0.85911309719086 -0.40014946460724
vn 0.32516828179359 0.85108137130737 -0.41222107410431
vn 0.32419240474701 0.85064691305161 -0.41388294100761
vn 0.31311362981796 0.8641522526741 -0.39395520091057
vn 0.30845442414284 0.87107521295547 -0.38220939040184
vn 0.32404431700706 0.84539943933487 -0.42461165785789
vn 0.30832377076149 0.87159901857376 -0.38111886382103
vn 0.31907221674919 0.85778939723968 -0.40297681093216
vn 0.31908458471298 0.85777735710144 -0.40299251675606
vn 0.31908634305 0.85778671503067 -0.4029712677002
vn 0.31908422708511 0.85778212547302 -0.40298289060593
vn 0.31908601522446 0.85777944326401 -0.402987241745
vn 0.31908148527145 0.85778552293777 -0.40297767519951
vn 0.31907594203949 0.85778021812439 -0.40299332141876
vn 0.31907308101654 0.85778468847275 -0.40298628807068
vn 0.31907486915588 0.85778260231018 -0.40298938751221
vn 0.319076359272 0.85778319835663 -0.40298694372177
vn 0.31907200813293 0.85778391361237 -0.40298873186111
vn 0.31907615065575 0.85778379440308 -0.40298563241959
vn 0.31907773017883 0.85778439044952 -0.40298312902451
vn 0.31907641887665 0.85778653621674 -0.40297982096672
vn 0.3190780878067 0.85778552293777 -0.40298044681549
vn 0.3190792798996 0.85778492689133 -0.40298065543175
# 26 normals

vt 0.79252445697784 0.03508734703064 0
vt 0.80055689811707 0.02631723880768 0
vt 0.77302372455597 0.00109934806824 0
vt 0 1 0
vt 0.7587696313858 0.79456406831741 0
vt 0.82124936580658 0.71813142299652 0
vt 0.4076817035675 0.02456760406494 0
vt 0.14521256089211 0.29473865032196 0
vt 0.66959822177887 0.91587686538696 0
vt 0.94063067436218 0.59771531820297 0
vt 0.01705918088555 0.48840737342834 0
vt 0.88142502307892 0.1088662147522 0
vt 0.86564719676971 0.12254595756531 0
vt 0.88516986370087 0.12910544872284 0
vt 0.86006689071655 0.09156787395477 0
vt 0.8753753900528 0.07847988605499 0
vt 0.85661923885345 0.07227802276611 0
vt 0.82829570770264 0.09787499904633 0
vt 0.83180510997772 0.1183477640152 0
vt 0.84799134731293 0.10456454753876 0
vt 0.7506058216095 0.02557563781738 0
vt 0.78605282306671 0.04215323925018 0
vt 0.77813923358917 0.05079340934753 0
vt 0.85161662101746 0.10220229625702 0
vt 0.8580265045166 0.09543430805206 0
vt 0.85723078250885 0.22375214099884 0
vt 0.86621391773224 0.22308361530304 0
vt 0.8612163066864 0.10626125335693 0
vt 0.84412288665771 0.24178838729858 0
vt 0.8809061050415 0.24015629291534 0
vt 0.98032629489899 0.09005463123322 0
vt 0.98023116588593 0.09962916374207 0
vt 0.99757850170136 0.11277365684509 0
vt 0.99671006202698 0.07534790039062 0
# 34 texture coordinates

o 4_DHD_symbols_outer_Cylinder
usemtl Symbols
f 22/3/3 23/2/2 24/1/1
f 5/7/6 4/6/5 2/5/4
f 2/5/4 3/9/8 6/8/7
f 6/8/7 5/7/6 2/5/4
f 5/7/6 1/10/9 4/6/5
f 3/9/8 7/11/10 6/8/7
f 25/14/11 26/13/11 27/12/11
f 28/17/12 29/16/12 30/15/12
f 31/20/13 32/19/13 33/18/13
f 24/1/1 19/22/15 21/21/14
f 19/22/15 20/23/16 21/21/14
f 24/1/1 8/25/18 18/24/17
f 13/28/21 14/27/20 17/26/19
f 15/30/23 16/29/22 17/26/19
f 13/28/21 8/25/18 9/31/24
f 11/33/25 12/32/25 9/31/24
f 18/24/17 8/25/18 13/28/21
f 22/3/3 24/1/1 21/21/14
f 19/22/15 24/1/1 18/24/17
f 18/24/17 13/28/21 17/26/19
f 14/27/20 15/30/23 17/26/19
f 12/32/25 13/28/21 9/31/24
f 10/34/26 11/33/25 9/31/24

