# WaveFront *.obj file (generated by Cinema 4D)

mtllib ./A30-Icarus_Base.mtl

v 0.003177 4.237585 0.186696
v -0.023191 4.251755 0.186696
v -0.047625 4.261439 0.186696
v -0.069926 4.267341 0.186696
v -0.089897 4.270168 0.186696
v -0.107339 4.270625 0.186696
v -0.124652 4.269037 0.186696
v -0.137696 4.266271 0.186696
v -0.146128 4.263545 0.186696
v -0.149681 4.262042 0.186696
v -0.163701 4.251184 0.186696
v -0.149786 4.229362 0.186696
v -0.138823 4.240273 0.186696
v -0.136928 4.241323 0.186696
v -0.131277 4.243728 0.186696
v -0.123735 4.245961 0.186696
v -0.113652 4.247710 0.186696
v -0.101054 4.248330 0.186696
v -0.085974 4.247173 0.186696
v -0.068440 4.243592 0.186696
v -0.048482 4.236939 0.186696
v -0.030790 4.228972 0.186696
v -0.011581 4.218293 0.186696
v 0.019356 4.197247 0.186696
v 0.042939 4.177141 0.186696
v 0.060126 4.158767 0.186696
v 0.071874 4.142915 0.186696
v 0.079143 4.130379 0.186696
v 0.082889 4.121948 0.186696
v 0.084087 4.118356 0.186696
v 0.071594 4.100645 0.186696
v 0.118559 4.093213 0.186696
v 0.112233 4.122942 0.186696
v 0.110114 4.128346 0.186696
v 0.103688 4.141049 0.186696
v 0.091624 4.159555 0.186696
v 0.075414 4.179281 0.186696
v 0.053009 4.201207 0.186696
v 0.032728 4.217634 0.186696
v 0.159040 4.257826 0.186696
v 0.141962 4.240115 0.186696
v 0.112436 4.245088 0.186696
v 0.076324 4.254886 0.186696
v 0.049766 4.265321 0.186696
v 0.033474 4.273699 0.186696
v 0.018147 4.283653 0.186696
v 0.002416 4.296651 0.186696
v -0.013728 4.313377 0.186696
v -0.029010 4.333285 0.186696
v -0.043459 4.357257 0.186696
v -0.053958 4.379864 0.186696
v -0.057597 4.389863 0.186696
v -0.052063 4.408997 0.186696
v -0.102120 4.406083 0.186696
v -0.085164 4.384856 0.186696
v -0.075041 4.361436 0.186696
v -0.057312 4.329205 0.186696
v -0.035975 4.298941 0.186696
v -0.014991 4.275744 0.186696
v -0.004796 4.266415 0.186696
v 0.006129 4.257667 0.186696
v 0.021850 4.247332 0.186696
v 0.042142 4.236939 0.186696
v 0.060440 4.229597 0.186696
v 0.078869 4.223828 0.186696
v 0.110804 4.217116 0.186696
v 0.139145 4.213807 0.186696
v 0.151397 4.213128 0.186696
v 0.175327 4.209754 0.186696
v 0.003177 4.237585 0.092227
v -0.023191 4.251755 0.092227
v -0.047625 4.261439 0.092227
v -0.069926 4.267341 0.092227
v -0.089897 4.270168 0.092227
v -0.107339 4.270625 0.092227
v -0.124652 4.269037 0.092227
v -0.137696 4.266271 0.092227
v -0.146128 4.263545 0.092227
v -0.149681 4.262042 0.092227
v -0.163701 4.251184 0.092227
v -0.149786 4.229362 0.092227
v -0.138823 4.240273 0.092227
v -0.136928 4.241323 0.092227
v -0.131277 4.243728 0.092227
v -0.123735 4.245961 0.092227
v -0.113652 4.247710 0.092227
v -0.101054 4.248330 0.092227
v -0.085974 4.247173 0.092227
v -0.068440 4.243592 0.092227
v -0.048482 4.236939 0.092227
v -0.030790 4.228972 0.092227
v -0.011581 4.218293 0.092227
v 0.019356 4.197247 0.092227
v 0.042939 4.177141 0.092227
v 0.060126 4.158767 0.092227
v 0.071874 4.142915 0.092227
v 0.079143 4.130379 0.092227
v 0.082889 4.121948 0.092227
v 0.084087 4.118356 0.092227
v 0.071594 4.100645 0.092227
v 0.118559 4.093213 0.092227
v 0.112233 4.122942 0.092227
v 0.110114 4.128346 0.092227
v 0.103688 4.141049 0.092227
v 0.091624 4.159555 0.092227
v 0.075414 4.179281 0.092227
v 0.053009 4.201207 0.092227
v 0.032728 4.217634 0.092227
v 0.159040 4.257826 0.092227
v 0.141962 4.240115 0.092227
v 0.112436 4.245088 0.092227
v 0.076324 4.254886 0.092227
v 0.049766 4.265321 0.092227
v 0.033474 4.273699 0.092227
v 0.018147 4.283653 0.092227
v 0.002416 4.296651 0.092227
v -0.013728 4.313377 0.092227
v -0.029010 4.333285 0.092227
v -0.043459 4.357257 0.092227
v -0.053958 4.379864 0.092227
v -0.057597 4.389863 0.092227
v -0.052063 4.408997 0.092227
v -0.102120 4.406083 0.092227
v -0.085164 4.384856 0.092227
v -0.075041 4.361436 0.092227
v -0.057312 4.329205 0.092227
v -0.035975 4.298941 0.092227
v -0.014991 4.275744 0.092227
v -0.004796 4.266415 0.092227
v 0.006129 4.257667 0.092227
v 0.021850 4.247332 0.092227
v 0.042142 4.236939 0.092227
v 0.060440 4.229597 0.092227
v 0.078869 4.223828 0.092227
v 0.110804 4.217116 0.092227
v 0.139145 4.213807 0.092227
v 0.151397 4.213128 0.092227
v 0.175327 4.209754 0.092227
# 138 vertices

vn 0.000000 0.000000 1.000000
vn 0.947115 0.320894 0.000000
vn -0.139578 -0.990211 0.000000
vn 0.502668 0.864479 0.000000
vn 0.404017 0.914752 0.000000
vn 0.439046 0.898465 0.000000
vn 0.293852 0.955851 0.000000
vn 0.331433 0.943479 0.000000
vn 0.178998 0.983849 0.000000
vn 0.217634 0.976031 0.000000
vn 0.064245 0.997934 0.000000
vn 0.102297 0.994754 0.000000
vn -0.052250 0.998634 0.000000
vn -0.013028 0.999915 0.000000
vn -0.169003 0.985615 0.000000
vn -0.130238 0.991483 0.000000
vn -0.274520 0.961581 0.000000
vn -0.241109 0.970498 0.000000
vn -0.362515 0.931978 0.000000
vn -0.335170 0.942158 0.000000
vn -0.389528 0.921015 0.000000
vn -0.389528 0.921015 0.000000
vn -0.612309 0.790619 0.000000
vn -0.843157 -0.537667 0.000000
vn -0.843157 -0.537667 0.000000
vn 0.705406 -0.708804 0.000000
vn 0.484650 -0.874708 0.000000
vn 0.423094 -0.906086 0.000000
vn 0.454162 -0.890919 0.000000
vn 0.320234 -0.947339 0.000000
vn 0.356182 -0.934417 0.000000
vn 0.208897 -0.977938 0.000000
vn 0.246597 -0.969118 0.000000
vn 0.089872 -0.995953 0.000000
vn 0.130549 -0.991442 0.000000
vn -0.034701 -0.999398 0.000000
vn 0.007249 -0.999974 0.000000
vn -0.159183 -0.987249 0.000000
vn -0.117915 -0.993024 0.000000
vn -0.277943 -0.960598 0.000000
vn -0.239184 -0.970974 0.000000
vn -0.379586 -0.925157 0.000000
vn -0.348071 -0.937468 0.000000
vn -0.461171 -0.887312 0.000000
vn -0.436063 -0.899916 0.000000
vn -0.537429 -0.843309 0.000000
vn -0.511881 -0.859057 0.000000
vn -0.620822 -0.783952 0.000000
vn -0.592015 -0.805927 0.000000
vn -0.704132 -0.710069 0.000000
vn -0.676914 -0.736063 0.000000
vn -0.780159 -0.625581 0.000000
vn -0.755767 -0.654840 0.000000
vn -0.845732 -0.533609 0.000000
vn -0.825124 -0.564952 0.000000
vn -0.898745 -0.438472 0.000000
vn -0.882487 -0.470337 0.000000
vn -0.938021 -0.346580 0.000000
vn -0.926399 -0.376543 0.000000
vn -0.948663 -0.316289 0.000000
vn -0.948663 -0.316289 0.000000
vn -0.817164 0.576405 0.000000
vn -0.817164 0.576405 0.000000
vn -0.156303 -0.987709 0.000000
vn -0.156303 -0.987709 0.000000
vn 0.978105 0.208110 0.000000
vn 0.931007 0.365000 0.000000
vn 0.906110 0.423041 0.000000
vn 0.919023 0.394203 0.000000
vn 0.857057 0.515222 0.000000
vn 0.875275 0.483626 0.000000
vn 0.795381 0.606110 0.000000
vn 0.817118 0.576470 0.000000
vn 0.724758 0.689003 0.000000
vn 0.749184 0.662362 0.000000
vn 0.653374 0.757035 0.000000
vn 0.676739 0.736223 0.000000
vn 0.583332 0.812234 0.000000
vn 0.606627 0.794987 0.000000
vn 0.531433 0.847100 0.000000
vn -0.719846 0.694133 0.000000
vn 0.166072 0.986114 0.000000
vn 0.230184 0.973147 0.000000
vn 0.198217 0.980158 0.000000
vn 0.331532 0.943444 0.000000
vn 0.296876 0.954916 0.000000
vn 0.427245 0.904136 0.000000
vn 0.396679 0.917957 0.000000
vn 0.516129 0.856511 0.000000
vn 0.486973 0.873417 0.000000
vn 0.607081 0.794640 0.000000
vn 0.576271 0.817258 0.000000
vn 0.692974 0.720963 0.000000
vn 0.665416 0.746473 0.000000
vn 0.769738 0.638360 0.000000
vn 0.745139 0.666910 0.000000
vn 0.836558 0.547879 0.000000
vn 0.815441 0.578840 0.000000
vn 0.891277 0.453460 0.000000
vn 0.874426 0.485159 0.000000
vn 0.929554 0.368687 0.000000
vn 0.918628 0.395125 0.000000
vn 0.939711 0.341970 0.000000
vn 0.960621 -0.277863 0.000000
vn -0.058123 0.998309 0.000000
vn -0.781321 -0.624129 0.000000
vn -0.781321 -0.624129 0.000000
vn -0.917913 -0.396782 0.000000
vn -0.890997 -0.454008 0.000000
vn -0.904914 -0.425594 0.000000
vn -0.838077 -0.545552 0.000000
vn -0.857743 -0.514078 0.000000
vn -0.768077 -0.640358 0.000000
vn -0.793349 -0.608767 0.000000
vn -0.697967 -0.716130 0.000000
vn -0.720146 -0.693823 0.000000
vn -0.642026 -0.766683 0.000000
vn -0.658737 -0.752373 0.000000
vn -0.575123 -0.818067 0.000000
vn -0.600372 -0.799721 0.000000
vn -0.487654 -0.873037 0.000000
vn -0.518854 -0.854863 0.000000
vn -0.400603 -0.916252 0.000000
vn -0.428445 -0.903568 0.000000
vn -0.323519 -0.946222 0.000000
vn -0.348093 -0.937460 0.000000
vn -0.236937 -0.971525 0.000000
vn -0.267993 -0.963421 0.000000
vn -0.146017 -0.989282 0.000000
vn -0.175937 -0.984401 0.000000
vn -0.075586 -0.997139 0.000000
vn -0.095813 -0.995399 0.000000
vn -0.055338 -0.998468 0.000000
vn 0.947115 0.320894 0.000000
vn 0.978105 0.208110 0.000000
vn 0.931007 0.365000 0.000000
vn 0.166072 0.986114 0.000000
vn -0.917913 -0.396782 0.000000
vn 0.000000 0.000000 1.000000
# 139 normals

vt 0.921452 0.455735 0.000000
vt 0.927378 0.456112 0.000000
vt 0.927310 0.449951 0.000000
vt 0.000000 1.000000 0.000000
vt 0.895420 0.424226 0.000000
vt 0.902486 0.427623 0.000000
vt 0.906325 0.422713 0.000000
vt 0.895085 0.418707 0.000000
vt 0.908114 0.417695 0.000000
vt 0.890086 0.418807 0.000000
vt 0.927167 0.464452 0.000000
vt 0.926845 0.471362 0.000000
vt 0.932113 0.471778 0.000000
vt 0.926315 0.477343 0.000000
vt 0.931523 0.477944 0.000000
vt 0.925676 0.482535 0.000000
vt 0.930822 0.483301 0.000000
vt 0.924983 0.487021 0.000000
vt 0.930068 0.487935 0.000000
vt 0.924287 0.490848 0.000000
vt 0.929300 0.491906 0.000000
vt 0.923505 0.494572 0.000000
vt 0.928406 0.495811 0.000000
vt 0.922832 0.497349 0.000000
vt 0.927604 0.498759 0.000000
vt 0.922325 0.499161 0.000000
vt 0.927008 0.500681 0.000000
vt 0.922074 0.499959 0.000000
vt 0.926730 0.501520 0.000000
vt 0.920555 0.503458 0.000000
vt 0.925325 0.505253 0.000000
vt 0.915011 0.501413 0.000000
vt 0.913221 0.506268 0.000000
vt 0.916762 0.498035 0.000000
vt 0.911548 0.496224 0.000000
vt 0.916954 0.497534 0.000000
vt 0.911715 0.495738 0.000000
vt 0.917441 0.496066 0.000000
vt 0.912156 0.494381 0.000000
vt 0.917995 0.494148 0.000000
vt 0.912668 0.492632 0.000000
vt 0.918634 0.491619 0.000000
vt 0.913253 0.490327 0.000000
vt 0.919303 0.488487 0.000000
vt 0.913864 0.487437 0.000000
vt 0.919934 0.484729 0.000000
vt 0.914456 0.483918 0.000000
vt 0.920494 0.480290 0.000000
vt 0.914994 0.479698 0.000000
vt 0.920956 0.475093 0.000000
vt 0.915453 0.474686 0.000000
vt 0.921254 0.470327 0.000000
vt 0.915752 0.470046 0.000000
vt 0.921436 0.464949 0.000000
vt 0.915974 0.464825 0.000000
vt 0.915942 0.455853 0.000000
vt 0.921227 0.447979 0.000000
vt 0.915641 0.448341 0.000000
vt 0.920756 0.441548 0.000000
vt 0.915110 0.442228 0.000000
vt 0.920124 0.436350 0.000000
vt 0.914394 0.437463 0.000000
vt 0.919484 0.432356 0.000000
vt 0.913576 0.434011 0.000000
vt 0.918813 0.429716 0.000000
vt 0.912915 0.431798 0.000000
vt 0.918522 0.428640 0.000000
vt 0.912603 0.430959 0.000000
vt 0.915021 0.423797 0.000000
vt 0.910181 0.426330 0.000000
vt 0.925609 0.419403 0.000000
vt 0.923515 0.414358 0.000000
vt 0.926183 0.426340 0.000000
vt 0.931514 0.425975 0.000000
vt 0.926287 0.427700 0.000000
vt 0.931616 0.427357 0.000000
vt 0.926460 0.431081 0.000000
vt 0.931866 0.430764 0.000000
vt 0.926773 0.436391 0.000000
vt 0.932220 0.436105 0.000000
vt 0.927081 0.442497 0.000000
vt 0.932529 0.442300 0.000000
vt 0.932741 0.449878 0.000000
vt 0.932764 0.456179 0.000000
vt 0.932520 0.464687 0.000000
vt 0.907796 0.429796 0.000000
vt 0.900711 0.435463 0.000000
vt 0.906024 0.436534 0.000000
vt 0.899435 0.444335 0.000000
vt 0.904665 0.445009 0.000000
vt 0.898701 0.451032 0.000000
vt 0.903952 0.451495 0.000000
vt 0.898329 0.455384 0.000000
vt 0.903641 0.455675 0.000000
vt 0.898117 0.459784 0.000000
vt 0.903487 0.459868 0.000000
vt 0.898109 0.464753 0.000000
vt 0.903525 0.464592 0.000000
vt 0.898383 0.470450 0.000000
vt 0.903829 0.470033 0.000000
vt 0.898952 0.476683 0.000000
vt 0.904440 0.475973 0.000000
vt 0.899991 0.483783 0.000000
vt 0.905514 0.482624 0.000000
vt 0.901489 0.490446 0.000000
vt 0.907040 0.488440 0.000000
vt 0.902292 0.493442 0.000000
vt 0.907984 0.490735 0.000000
vt 0.905656 0.497706 0.000000
vt 0.910426 0.494928 0.000000
vt 0.893674 0.503342 0.000000
vt 0.896222 0.508757 0.000000
vt 0.894469 0.496109 0.000000
vt 0.888490 0.496140 0.000000
vt 0.893945 0.489356 0.000000
vt 0.888217 0.489736 0.000000
vt 0.892963 0.480320 0.000000
vt 0.887492 0.480764 0.000000
vt 0.892161 0.471644 0.000000
vt 0.886861 0.471951 0.000000
vt 0.891761 0.464532 0.000000
vt 0.886583 0.464638 0.000000
vt 0.891698 0.461440 0.000000
vt 0.886560 0.461439 0.000000
vt 0.891694 0.458348 0.000000
vt 0.886605 0.458215 0.000000
vt 0.891832 0.454236 0.000000
vt 0.886797 0.453915 0.000000
vt 0.892212 0.449290 0.000000
vt 0.887237 0.448764 0.000000
vt 0.892734 0.445012 0.000000
vt 0.887776 0.444362 0.000000
vt 0.893319 0.440840 0.000000
vt 0.888386 0.440106 0.000000
vt 0.894432 0.433677 0.000000
vt 0.889445 0.433020 0.000000
vt 0.895243 0.427142 0.000000
vt 0.890093 0.426827 0.000000
vt 0.890193 0.424139 0.000000
vt 0.896874 0.413688 0.000000
vt 0.918765 0.508312 0.000000
vt 0.910297 0.499438 0.000000
vt 0.912927 0.418751 0.000000
vt 0.930917 0.418935 0.000000
vt 0.910335 0.425251 0.000000
vt 0.908203 0.503120 0.000000
vt 0.888103 0.502899 0.000000
# 147 texture coordinates

o A30___Icarus_Base
usemtl Mat.
f 38/3/1 39/2/1 24/1/1
f 40/7/1 41/6/1 68/5/1
f 109/9/2 40/7/2 69/8/2
f 138/10/3 69/8/3 68/5/3
f 71/13/6 2/12/5 1/11/4
f 72/15/8 3/14/7 2/12/5
f 73/17/10 4/16/9 3/14/7
f 74/19/12 5/18/11 4/16/9
f 75/21/14 6/20/13 5/18/11
f 76/23/16 7/22/15 6/20/13
f 77/25/18 8/24/17 7/22/15
f 78/27/20 9/26/19 8/24/17
f 79/29/22 10/28/21 9/26/19
f 80/31/23 11/30/23 10/28/23
f 81/33/24 12/32/25 11/30/24
f 82/35/26 13/34/26 12/32/26
f 83/37/29 14/36/28 13/34/27
f 84/39/31 15/38/30 14/36/28
f 85/41/33 16/40/32 15/38/30
f 86/43/35 17/42/34 16/40/32
f 87/45/37 18/44/36 17/42/34
f 88/47/39 19/46/38 18/44/36
f 89/49/41 20/48/40 19/46/38
f 90/51/43 21/50/42 20/48/40
f 91/53/45 22/52/44 21/50/42
f 92/55/47 23/54/46 22/52/44
f 93/56/49 24/1/48 23/54/46
f 94/58/51 25/57/50 24/1/48
f 95/60/53 26/59/52 25/57/50
f 96/62/55 27/61/54 26/59/52
f 97/64/57 28/63/56 27/61/54
f 98/66/59 29/65/58 28/63/56
f 99/68/61 30/67/60 29/65/58
f 100/70/62 31/69/63 30/67/62
f 101/72/64 32/71/65 31/69/64
f 102/74/66 33/73/66 32/71/66
f 103/76/69 34/75/68 33/73/67
f 104/78/71 35/77/70 34/75/68
f 105/80/73 36/79/72 35/77/70
f 106/82/75 37/81/74 36/79/72
f 107/83/77 38/3/76 37/81/74
f 108/84/79 39/2/78 38/3/76
f 70/85/80 1/11/4 39/2/78
f 110/86/81 41/6/81 40/7/81
f 111/88/84 42/87/83 41/6/82
f 112/90/86 43/89/85 42/87/83
f 113/92/88 44/91/87 43/89/85
f 114/94/90 45/93/89 44/91/87
f 115/96/92 46/95/91 45/93/89
f 116/98/94 47/97/93 46/95/91
f 117/100/96 48/99/95 47/97/93
f 118/102/98 49/101/97 48/99/95
f 119/104/100 50/103/99 49/101/97
f 120/106/102 51/105/101 50/103/99
f 121/108/103 52/107/103 51/105/101
f 122/110/104 53/109/104 52/107/104
f 123/112/105 54/111/105 53/109/105
f 124/114/106 55/113/107 54/111/106
f 125/116/110 56/115/109 55/113/108
f 126/118/112 57/117/111 56/115/109
f 127/120/114 58/119/113 57/117/111
f 128/122/116 59/121/115 58/119/113
f 129/124/118 60/123/117 59/121/115
f 130/126/120 61/125/119 60/123/117
f 131/128/122 62/127/121 61/125/119
f 132/130/124 63/129/123 62/127/121
f 133/132/126 64/131/125 63/129/123
f 134/134/128 65/133/127 64/131/125
f 135/136/130 66/135/129 65/133/127
f 136/138/132 67/137/131 66/135/129
f 137/139/133 68/5/133 67/137/131
f 138/140/134 109/9/2 69/8/2
f 137/139/3 138/10/3 68/5/3
f 70/85/80 71/13/6 1/11/4
f 71/13/6 72/15/8 2/12/5
f 72/15/8 73/17/10 3/14/7
f 73/17/10 74/19/12 4/16/9
f 74/19/12 75/21/14 5/18/11
f 75/21/14 76/23/16 6/20/13
f 76/23/16 77/25/18 7/22/15
f 77/25/18 78/27/20 8/24/17
f 78/27/20 79/29/22 9/26/19
f 79/29/23 80/31/23 10/28/23
f 80/141/25 81/33/24 11/30/24
f 81/142/26 82/35/26 12/32/26
f 82/35/27 83/37/29 13/34/27
f 83/37/29 84/39/31 14/36/28
f 84/39/31 85/41/33 15/38/30
f 85/41/33 86/43/35 16/40/32
f 86/43/35 87/45/37 17/42/34
f 87/45/37 88/47/39 18/44/36
f 88/47/39 89/49/41 19/46/38
f 89/49/41 90/51/43 20/48/40
f 90/51/43 91/53/45 21/50/42
f 91/53/45 92/55/47 22/52/44
f 92/55/47 93/56/49 23/54/46
f 93/56/49 94/58/51 24/1/48
f 94/58/51 95/60/53 25/57/50
f 95/60/53 96/62/55 26/59/52
f 96/62/55 97/64/57 27/61/54
f 97/64/57 98/66/59 28/63/56
f 98/66/59 99/68/61 29/65/58
f 99/68/63 100/70/62 30/67/62
f 100/143/65 101/72/64 31/69/64
f 101/144/135 102/74/66 32/71/66
f 102/74/136 103/76/69 33/73/67
f 103/76/69 104/78/71 34/75/68
f 104/78/71 105/80/73 35/77/70
f 105/80/73 106/82/75 36/79/72
f 106/82/75 107/83/77 37/81/74
f 107/83/77 108/84/79 38/3/76
f 108/84/79 70/85/80 39/2/78
f 109/145/81 110/86/81 40/7/81
f 110/86/137 111/88/84 41/6/82
f 111/88/84 112/90/86 42/87/83
f 112/90/86 113/92/88 43/89/85
f 113/92/88 114/94/90 44/91/87
f 114/94/90 115/96/92 45/93/89
f 115/96/92 116/98/94 46/95/91
f 116/98/94 117/100/96 47/97/93
f 117/100/96 118/102/98 48/99/95
f 118/102/98 119/104/100 49/101/97
f 119/104/100 120/106/102 50/103/99
f 120/106/102 121/108/103 51/105/101
f 121/108/104 122/110/104 52/107/104
f 122/146/105 123/112/105 53/109/105
f 123/147/107 124/114/106 54/111/106
f 124/114/138 125/116/110 55/113/108
f 125/116/110 126/118/112 56/115/109
f 126/118/112 127/120/114 57/117/111
f 127/120/114 128/122/116 58/119/113
f 128/122/116 129/124/118 59/121/115
f 129/124/118 130/126/120 60/123/117
f 130/126/120 131/128/122 61/125/119
f 131/128/122 132/130/124 62/127/121
f 132/130/124 133/132/126 63/129/123
f 133/132/126 134/134/128 64/131/125
f 134/134/128 135/136/130 65/133/127
f 135/136/130 136/138/132 66/135/129
f 136/138/132 137/139/133 67/137/131
f 37/81/1 38/3/1 25/57/1
f 36/79/1 37/81/1 26/59/1
f 36/79/1 27/61/1 28/63/1
f 35/77/1 29/65/1 30/67/1
f 30/67/1 33/73/1 34/75/1
f 32/71/1 33/73/1 30/67/1
f 28/63/1 29/65/1 35/77/1
f 39/2/1 1/11/1 23/54/1
f 1/11/1 2/12/1 22/52/1
f 21/50/1 22/52/1 2/12/1
f 20/48/1 21/50/1 3/14/1
f 19/46/1 20/48/1 4/16/1
f 18/44/1 19/46/1 5/18/1
f 6/20/1 17/42/1 18/44/1
f 17/42/1 6/20/1 7/22/1
f 16/40/1 7/22/1 8/24/1
f 15/38/1 8/24/1 9/26/1
f 14/36/1 9/26/1 10/28/1
f 13/34/1 10/28/1 11/30/1
f 67/137/1 68/5/1 41/6/1
f 41/6/1 42/87/1 66/135/1
f 42/87/1 43/89/1 65/133/1
f 64/131/1 65/133/1 43/89/1
f 44/91/1 63/129/1 64/131/1
f 44/91/1 45/93/1 62/127/1
f 45/93/1 46/95/1 61/125/1
f 60/123/1 61/125/1 46/95/1
f 47/97/1 59/121/1 60/123/1
f 47/97/1 48/99/1 58/119/1
f 49/101/1 57/117/1 58/119/1
f 50/103/1 51/105/1 56/115/1
f 51/105/1 52/107/1 55/113/1
f 53/109/1 54/111/1 55/113/1
f 57/117/1 49/101/1 50/103/1
f 26/59/1 37/81/1 25/57/1
f 27/61/1 36/79/1 26/59/1
f 35/77/1 36/79/1 28/63/1
f 34/75/1 35/77/1 30/67/1
f 31/69/139 32/71/1 30/67/1
f 24/1/1 39/2/1 23/54/1
f 23/54/1 1/11/1 22/52/1
f 3/14/1 21/50/1 2/12/1
f 4/16/1 20/48/1 3/14/1
f 5/18/1 19/46/1 4/16/1
f 6/20/1 18/44/1 5/18/1
f 16/40/1 17/42/1 7/22/1
f 15/38/1 16/40/1 8/24/1
f 14/36/1 15/38/1 9/26/1
f 13/34/1 14/36/1 10/28/1
f 12/32/1 13/34/1 11/30/1
f 67/137/1 41/6/1 66/135/1
f 66/135/1 42/87/1 65/133/1
f 43/89/1 44/91/1 64/131/1
f 63/129/1 44/91/1 62/127/1
f 62/127/1 45/93/1 61/125/1
f 46/95/1 47/97/1 60/123/1
f 59/121/1 47/97/1 58/119/1
f 48/99/1 49/101/1 58/119/1
f 57/117/1 50/103/1 56/115/1
f 56/115/1 51/105/1 55/113/1
f 52/107/1 53/109/1 55/113/1
f 25/57/1 38/3/1 24/1/1
f 69/8/1 40/7/1 68/5/1

