# WaveFront *.obj file (generated by Cinema 4D)

mtllib ./A25-P2X-416_(New_Ground)_button_light.mtl

v 0.38381001353264 1.08748805522919 0.03210499882698
v 0.36589398980141 1.12374997138977 0.09237000346184
v 0.35032001137733 1.14454698562622 0.12706600129604
v 0.3743439912796 1.10934197902679 0.06839200109243
v 0.54579401016235 1.04957795143127 0.08024500310421
v 0.52032798528671 1.10220503807068 0.1677680015564
v 0.49724200367928 1.13230299949646 0.2179239988327
v 0.48300829529762 1.09442782402039 0.11159925162792
v 0.49298232793808 1.08840262889862 0.10667166858912
v 0.48632770776749 1.08899033069611 0.10265336185694
v 0.48419383168221 1.08611166477203 0.09483618289232
v 0.41572979092598 1.1142041683197 0.10042434930801
v 0.41290119290352 1.11703443527222 0.10420915484428
v 0.40851187705994 1.12122571468353 0.10965516418219
v 0.40688490867615 1.12247705459595 0.11103072762489
v 0.40377631783485 1.12461364269257 0.11311715096235
v 0.39869809150696 1.12768507003784 0.11563421785831
v 0.39438283443451 1.12985444068909 0.1168350353837
v 0.48304784297943 1.09074985980988 0.1038018912077
v 0.40195423364639 1.12704539299011 0.11685059964657
v 0.40775179862976 1.12609708309174 0.1194226667285
v 0.41033202409744 1.12475085258484 0.11859997361898
v 0.40937140583992 1.12294983863831 0.11400573700666
v 0.41667801141739 1.12018132209778 0.11389821022749
v 0.41441860795021 1.1158401966095 0.10286871343851
v 0.4801322221756 1.08982622623444 0.09952717274427
v 0.39134508371353 1.13130235671997 0.117511741817
# 27 vertices

vn 0.31907856464386 0.85778856277466 -0.40297350287437
vn 0.31907659769058 0.85778915882111 -0.4029738008976
vn 0.31907099485397 0.85778671503067 -0.40298345685005
vn 0.31906926631927 0.85911309719086 -0.40014946460724
vn 0.32516828179359 0.85108137130737 -0.41222107410431
vn 0.32419243454933 0.85064691305161 -0.41388294100761
vn 0.31311360001564 0.8641522526741 -0.39395520091057
vn 0.30832377076149 0.87159901857376 -0.38111886382103
vn 0.30845442414284 0.87107521295547 -0.38220939040184
vn 0.32404431700706 0.84539943933487 -0.42461165785789
vn 0.3191197514534 0.85778284072876 -0.40295323729515
vn 0.3191120326519 0.85778760910034 -0.40294906497002
vn 0.31909376382828 0.85777992010117 -0.4029800593853
vn 0.31907427310944 0.85778796672821 -0.40297824144363
vn 0.31912195682526 0.85777997970581 -0.4029575586319
vn 0.31907218694687 0.85778605937958 -0.40298399329185
vn 0.31906217336655 0.85778748989105 -0.40298879146576
vn 0.31906294822693 0.85779082775116 -0.40298116207123
vn 0.31907114386559 0.85778796672821 -0.40298098325729
vn 0.31907019019127 0.85777789354324 -0.40300279855728
vn 0.31907200813293 0.85778135061264 -0.40299421548843
vn 0.31906718015671 0.85776829719543 -0.40302562713623
vn 0.31906718015671 0.85776835680008 -0.40302547812462
vn 0.31906324625015 0.8577766418457 -0.40301102399826
vn 0.31906631588936 0.85778653621674 -0.4029877781868
vn 0.3190792798996 0.85778492689133 -0.40298065543175
# 26 normals

vt 0.97235727310181 0.04495692253113 0
vt 0.99397385120392 0.04158782958984 0
vt 0.97484397888184 0.02395844459534 0
vt 0 1 0
vt 0.7587696313858 0.79456406831741 0
vt 0.82124936580658 0.71813142299652 0
vt 0.4076817035675 0.02456760406494 0
vt 0.14521256089211 0.29473865032196 0
vt 0.01705918088555 0.48840737342834 0
vt 0.66959822177887 0.91587686538696 0
vt 0.94063067436218 0.59771531820297 0
vt 0.8377571105957 0.21137917041779 0
vt 0.84749269485474 0.21172559261322 0
vt 0.80938625335693 0.18849182128906 0
vt 0.80646789073944 0.21631801128387 0
vt 0.83091163635254 0.21326923370361 0
vt 0.7952173948288 0.20737242698669 0
vt 0.79931128025055 0.21843886375427 0
vt 0.78343772888184 0.19778823852539 0
vt 0.77611112594604 0.20324599742889 0
vt 0.77273559570312 0.22232186794281 0
vt 0.78724181652069 0.22332620620728 0
vt 0.75842952728271 0.24208009243011 0
vt 0.75066840648651 0.24895370006561 0
vt 0.77016413211823 0.23268353939056 0
vt 0.94201850891113 0.01882636547089 0
vt 0.96521461009979 0.03075039386749 0
vt 0.97555661201477 0.00038528442383 0
# 28 texture coordinates

o 4_DHD_symbols_outer_Cylinder
usemtl Symbols
f 10/3/3 11/2/2 26/1/1
f 5/7/6 4/6/5 2/5/4
f 3/10/9 7/9/8 6/8/7
f 5/7/6 1/11/10 4/6/5
f 2/5/4 3/10/9 6/8/7
f 6/8/7 5/7/6 2/5/4
f 12/13/12 25/12/11 26/1/1
f 13/16/15 14/15/14 24/14/13
f 14/15/14 15/18/17 23/17/16
f 21/20/19 22/19/18 23/17/16
f 23/17/16 16/22/21 20/21/20
f 27/24/23 20/21/20 18/23/22
f 20/21/20 17/25/24 18/23/22
f 20/21/20 16/22/21 17/25/24
f 23/17/16 15/18/17 16/22/21
f 25/12/11 12/13/12 13/16/15
f 10/3/3 19/27/25 8/26/25
f 11/2/2 12/13/12 26/1/1
f 25/12/11 13/16/15 24/14/13
f 24/14/13 14/15/14 23/17/16
f 21/20/19 23/17/16 20/21/20
f 9/28/26 10/3/3 8/26/25
f 19/27/25 10/3/3 26/1/1

