# WaveFront *.obj file (generated by Cinema 4D)

mtllib ./A25-P3X-744_(Tagrea)_button_light.mtl

v 0.38381001353264 1.08748805522919 0.03210499882698
v 0.36589398980141 1.12374997138977 0.09237000346184
v 0.35032001137733 1.14454698562622 0.12706600129604
v 0.3743439912796 1.10934197902679 0.06839200109243
v 0.54579401016235 1.04957795143127 0.08024500310421
v 0.52032798528671 1.10220503807068 0.1677680015564
v 0.49724200367928 1.13230299949646 0.2179239988327
v 0.42018231749535 1.11688935756683 0.10971505194902
v 0.44109326601028 1.08759343624115 0.06391309201717
v 0.41778707504272 1.13137149810791 0.13864527642727
v 0.42578238248825 1.12618255615234 0.13393068313599
v 0.44039359688759 1.11616885662079 0.12418480962515
v 0.4798401594162 1.08790493011475 0.09525588154793
v 0.47666642069817 1.0883766412735 0.09374698251486
v 0.45588561892509 1.10092949867249 0.10401265323162
v 0.43636059761047 1.08871626853943 0.06255590170622
v 0.43120366334915 1.09015393257141 0.06153284013271
v 0.4299261868 1.09053552150726 0.06133347377181
v 0.4272586107254 1.09401726722717 0.06663243472576
# 19 vertices

vn 0.31908270716667 0.85778558254242 -0.40297663211823
vn 0.31908199191093 0.85778415203094 -0.40298020839691
vn 0.31908398866653 0.85778522491455 -0.40297639369965
vn 0.31909191608429 0.85777151584625 -0.40299934148788
vn 0.31908515095711 0.85775071382523 -0.40304887294769
vn 0.31908220052719 0.85776782035828 -0.40301477909088
vn 0.31906926631927 0.85911309719086 -0.40014946460724
vn 0.32419240474701 0.85064691305161 -0.41388294100761
vn 0.31311360001564 0.8641522526741 -0.39395520091057
vn 0.32516828179359 0.85108137130737 -0.41222107410431
vn 0.30832377076149 0.87159901857376 -0.38111886382103
vn 0.30845442414284 0.87107521295547 -0.38220939040184
vn 0.32404431700706 0.84539943933487 -0.42461165785789
vn 0.31907975673676 0.85778540372849 -0.40297949314117
vn 0.31908294558525 0.85778540372849 -0.4029768705368
vn 0.3190795481205 0.85778492689133 -0.40298068523407
vn 0.31909531354904 0.8577818274498 -0.40297454595566
vn 0.31911134719849 0.85777872800827 -0.40296843647957
vn 0.319076359272 0.85778611898422 -0.40298038721085
# 19 normals

vt 0.93575596809387 0.09739410877228 0
vt 0.99917125701904 0.0148618221283 0
vt 0.99546360969543 0.00136113166809 0
vt 0 1 0
vt 0.84580218791962 0.07835519313812 0
vt 0.84177589416504 0.09949672222137 0
vt 0.83985090255737 0.11934316158295 0
vt 0.7587696313858 0.79456406831741 0
vt 0.4076817035675 0.02456760406494 0
vt 0.14521256089211 0.29473865032196 0
vt 0.82124936580658 0.71813142299652 0
vt 0.01705918088555 0.48840737342834 0
vt 0.66959822177887 0.91587686538696 0
vt 0.94063067436218 0.59771531820297 0
vt 0.87875473499298 0.24266743659973 0
vt 0.83398509025574 0.15527510643005 0
vt 0.77839314937592 0.21256816387177 0
vt 0.87377214431763 0.06842970848083 0
vt 0.84702849388123 0.0731748342514 0
vt 0.75066471099854 0.24409937858582 0
# 20 texture coordinates

o 4_DHD_symbols_outer_Cylinder
usemtl Symbols
f 13/3/3 14/2/2 15/1/1
f 9/7/6 16/6/5 17/5/4
f 6/10/9 5/9/8 2/8/7
f 5/9/8 4/11/10 2/8/7
f 3/13/12 7/12/11 6/10/9
f 5/9/8 1/14/13 4/11/10
f 2/8/7 3/13/12 6/10/9
f 11/17/16 12/16/15 8/15/14
f 15/1/1 8/15/14 12/16/15
f 17/5/4 18/19/18 19/18/17
f 10/20/19 11/17/16 8/15/14
f 12/16/15 13/3/3 15/1/1
f 19/18/17 9/7/6 17/5/4

