# WaveFront *.obj file (generated by Cinema 4D)

mtllib ./Phoenix_site_button_light.mtl

v 0.38381001353264 1.08748805522919 0.03210499882698
v 0.36589398980141 1.12374997138977 0.09237000346184
v 0.35032001137733 1.14454698562622 0.12706600129604
v 0.3743439912796 1.10934197902679 0.06839200109243
v 0.54579401016235 1.04957795143127 0.08024500310421
v 0.52032798528671 1.10220503807068 0.1677680015564
v 0.49724200367928 1.13230299949646 0.2179239988327
v 0.40454444289207 1.11354720592499 0.0901492536068
v 0.41213449835777 1.10867786407471 0.08579421788454
v 0.41575354337692 1.11143386363983 0.09452610462904
v 0.42721056938171 1.11539530754089 0.11203019320965
v 0.43323513865471 1.11912989616394 0.12474976480007
v 0.43674024939537 1.12223124504089 0.13412669301033
v 0.45802560448647 1.10955560207367 0.12399908155203
v 0.48101383447647 1.09680271148682 0.11505518853664
v 0.46364441514015 1.09991765022278 0.10793275386095
v 0.45308324694633 1.10226440429688 0.10456565022469
v 0.44656279683113 1.10615634918213 0.1076871752739
v 0.43700820207596 1.10635828971863 0.10055161267519
v 0.46654832363129 1.08909666538239 0.08719845861197
v 0.46528708934784 1.09228181838989 0.0929796025157
v 0.48466041684151 1.08816957473755 0.0995662510395
v 0.48937878012657 1.08635115623474 0.09943153709173
v 0.49520424008369 1.08733177185059 0.10613135993481
v 0.4594190120697 1.09522747993469 0.09460341185331
v 0.44716355204582 1.10213673114777 0.09960658848286
v 0.47376880049706 1.09676361083984 0.10923542827368
v 0.49051153659821 1.09385251998901 0.11629574745893
v 0.48517033457756 1.09655475616455 0.11781863123178
v 0.46503210067749 1.10739552974701 0.12494897097349
v 0.43510127067566 1.125168800354 0.13908180594444
v 0.43282973766327 1.1229407787323 0.13254068791866
v 0.42552256584167 1.11766409873962 0.11552308499813
v 0.41852951049805 1.11466073989868 0.10359279811382
v 0.41461643576622 1.11356484889984 0.09816175699234
v 0.4127970635891 1.11321413516998 0.09597476571798
# 36 vertices

vn 0.31311360001564 0.8641522526741 -0.39395520091057
vn 0.30832377076149 0.87159901857376 -0.38111886382103
vn 0.30845442414284 0.87107521295547 -0.38220939040184
vn 0.31906926631927 0.85911309719086 -0.40014946460724
vn 0.32516828179359 0.85108137130737 -0.41222107410431
vn 0.32419240474701 0.85064691305161 -0.41388294100761
vn 0.32404431700706 0.84539943933487 -0.42461165785789
vn 0.31907865405083 0.85778206586838 -0.40298730134964
vn 0.3190786242485 0.85778468847275 -0.40298169851303
vn 0.31908077001572 0.85778248310089 -0.40298476815224
vn 0.31908169388771 0.85778683423996 -0.4029746055603
vn 0.31907773017883 0.85778903961182 -0.40297311544418
vn 0.31907787919044 0.85778701305389 -0.4029775261879
vn 0.31908115744591 0.85778641700745 -0.40297621488571
vn 0.31907939910889 0.85778492689133 -0.40298068523407
vn 0.31907877326012 0.85778659582138 -0.40297767519951
vn 0.31906980276108 0.85778641700745 -0.40298500657082
vn 0.31906867027283 0.85778999328613 -0.40297830104828
vn 0.31907671689987 0.85778564214706 -0.40298134088516
vn 0.31908002495766 0.85778534412384 -0.40297946333885
vn 0.3190840780735 0.85778737068176 -0.40297168493271
vn 0.31908324360847 0.85778695344925 -0.4029735326767
vn 0.31907707452774 0.85778778791428 -0.40297639369965
vn 0.3190792798996 0.85778331756592 -0.40298423171043
vn 0.31907722353935 0.85778379440308 -0.40298491716385
vn 0.31908017396927 0.85778021812439 -0.40299016237259
vn 0.31908175349236 0.85778629779816 -0.40297603607178
vn 0.31907597184181 0.85778272151947 -0.40298825502396
vn 0.31908166408539 0.85778468847275 -0.40297949314117
vn 0.31907001137733 0.85778993368149 -0.40297746658325
vn 0.3190778195858 0.85778653621674 -0.40297871828079
vn 0.31906962394714 0.85778921842575 -0.40297931432724
vn 0.31907391548157 0.85778707265854 -0.40298041701317
vn 0.31908228993416 0.85778546333313 -0.40297746658325
vn 0.31908330321312 0.85778987407684 -0.40296703577042
vn 0.31907951831818 0.85778403282166 -0.40298241376877
# 36 normals

vt 0.14521256089211 0.29473865032196 0
vt 0.01705918088555 0.48840737342834 0
vt 0.66959822177887 0.91587686538696 0
vt 0 1 0
vt 0.7587696313858 0.79456406831741 0
vt 0.82124936580658 0.71813142299652 0
vt 0.4076817035675 0.02456760406494 0
vt 0.94063067436218 0.59771531820297 0
vt 0.88487708568573 0.08816003799438 0
vt 0.88107669353485 0.06700217723846 0
vt 0.83371269702911 0.02055931091309 0
vt 0.79388880729675 0.06206572055817 0
vt 0.83989357948303 0.10132718086243 0
vt 0.8213803768158 0.07286190986633 0
vt 0.86544179916382 0.15317714214325 0
vt 0.90012657642364 0.16846799850464 0
vt 0.88811600208282 0.13550579547882 0
vt 0.93964278697968 0.23241055011749 0
vt 0.94866228103638 0.23370206356049 0
vt 0.94858837127686 0.22180449962616 0
vt 0.80265474319458 0.23506784439087 0
vt 0.80123507976532 0.15001547336578 0
vt 0.78828299045563 0.13040947914124 0
vt 0.97763895988464 0.24758100509644 0
vt 0.97930347919464 0.2157906293869 0
vt 0.82724440097809 0.00584137439728 0
vt 0.79925036430359 0.00112295150757 0
vt 0.86505877971649 0.12708628177643 0
vt 0.89608943462372 0.05181157588959 0
vt 0.91812407970428 0.23105788230896 0
vt 0.87318408489227 0.23299872875214 0
vt 0.88091218471527 0.22098422050476 0
vt 0.83508050441742 0.2274397611618 0
vt 0.81296098232269 0.24394297599792 0
vt 0.77646827697754 0.03539788722992 0
vt 0.77979362010956 0.05474448204041 0
vt 0.7905946969986 0.24979543685913 0
# 37 texture coordinates

o 4_DHD_symbols_outer_Cylinder
usemtl Symbols
f 3/3/3 7/2/2 6/1/1
f 5/7/6 4/6/5 2/5/4
f 2/5/4 3/3/3 6/1/1
f 6/1/1 5/7/6 2/5/4
f 5/7/6 1/8/7 4/6/5
f 22/11/10 21/10/9 25/9/8
f 27/14/13 16/13/12 15/12/11
f 26/17/16 19/16/15 18/15/14
f 10/20/19 36/19/18 35/18/17
f 30/23/22 14/22/21 13/21/20
f 10/20/19 9/25/24 8/24/23
f 36/19/18 10/20/19 8/24/23
f 24/27/26 23/26/25 22/11/10
f 26/17/16 17/28/27 16/13/12
f 20/29/28 19/16/15 26/17/16
f 25/9/8 21/10/9 20/29/28
f 10/20/19 35/18/17 34/30/29
f 12/33/32 11/32/31 33/31/30
f 13/21/20 12/33/32 32/34/33
f 34/30/29 33/31/30 11/32/31
f 15/12/11 14/22/21 30/23/22
f 29/36/35 28/35/34 15/12/11
f 27/14/13 26/17/16 16/13/12
f 26/17/16 25/9/8 20/29/28
f 11/32/31 10/20/19 34/30/29
f 32/34/33 12/33/32 33/31/30
f 31/37/36 13/21/20 32/34/33
f 29/36/35 15/12/11 30/23/22
f 24/27/26 22/11/10 25/9/8
f 28/35/34 27/14/13 15/12/11
f 17/28/27 26/17/16 18/15/14
f 31/37/36 30/23/22 13/21/20

