# WaveFront *.obj file (generated by Cinema 4D)

mtllib ./A2-Tollan.mtl

v -0.136201 4.117252 0.185858
v -0.151237 4.123150 0.185858
v -0.165029 4.130699 0.185858
v -0.176985 4.139317 0.185858
v -0.186499 4.148011 0.185858
v -0.193530 4.156016 0.185858
v -0.195825 4.159171 0.185858
v -0.233011 4.102882 0.185858
v -0.157126 4.050192 0.185858
v -0.062082 4.076537 0.185858
v -0.068636 4.118765 0.185858
v -0.074165 4.116650 0.185858
v -0.085129 4.113846 0.185858
v -0.097416 4.112305 0.185858
v -0.110326 4.112312 0.185858
v -0.122745 4.113854 0.185858
v 0.082628 4.327637 0.185858
v 0.061703 4.361419 0.185858
v 0.027291 4.321712 0.185858
v 0.038510 4.294610 0.185858
v -0.030568 4.448459 0.185858
v -0.066493 4.325557 0.185858
v 0.233011 4.126769 0.093319
v 0.087923 4.241794 0.093319
v 0.194060 4.266484 0.093319
v -0.015844 4.345183 0.185858
v 0.001450 4.190112 0.093319
v 0.117924 4.116748 0.093319
v 0.031984 4.097615 0.093319
v 0.015190 4.397596 0.185858
v 0.031984 4.097615 0.185858
v 0.117924 4.116748 0.185858
v 0.001450 4.190112 0.185858
v 0.194060 4.266484 0.185858
v 0.087923 4.241794 0.185858
v 0.233011 4.126769 0.185858
v -0.136201 4.117252 0.093319
v -0.151237 4.123150 0.093319
v -0.165029 4.130699 0.093319
v -0.176985 4.139317 0.093319
v -0.186499 4.148011 0.093319
v -0.193530 4.156016 0.093319
v -0.195825 4.159171 0.093319
v -0.233011 4.102882 0.093319
v -0.157126 4.050192 0.093319
v -0.062082 4.076537 0.093319
v -0.068636 4.118765 0.093319
v -0.074165 4.116650 0.093319
v -0.085129 4.113846 0.093319
v -0.097416 4.112305 0.093319
v -0.110326 4.112312 0.093319
v -0.122745 4.113854 0.093319
v 0.082628 4.327637 0.093319
v 0.061703 4.361419 0.093319
v 0.027291 4.321712 0.093319
v 0.038510 4.294610 0.093319
v -0.030568 4.448459 0.093319
v -0.066493 4.325557 0.093319
v 0.015190 4.397596 0.093319
v -0.015844 4.345183 0.093319
# 60 vertices

vn 0.000000 0.000000 1.000000
vn 0.963266 0.268549 0.000000
vn -0.621246 -0.783615 0.000000
vn -0.621246 -0.783615 0.000000
vn 0.325637 0.945495 0.000000
vn 0.442612 0.896713 0.000000
vn 0.404219 0.914662 0.000000
vn 0.550806 0.834633 0.000000
vn 0.515884 0.856659 0.000000
vn 0.645597 0.763678 0.000000
vn 0.615601 0.788058 0.000000
vn 0.726715 0.686939 0.000000
vn 0.701101 0.713062 0.000000
vn 0.790316 0.612699 0.000000
vn 0.771172 0.636626 0.000000
vn 0.808701 0.588220 0.000000
vn -0.834370 0.551205 0.000000
vn -0.570338 -0.821410 0.000000
vn 0.267118 -0.963664 0.000000
vn 0.988169 0.153370 0.000000
vn 0.988169 0.153370 0.000000
vn -0.357247 0.934010 0.000000
vn -0.284696 0.958618 0.000000
vn -0.321234 0.947000 0.000000
vn -0.165833 0.986154 0.000000
vn -0.207031 0.978334 0.000000
vn -0.041199 0.999151 0.000000
vn -0.082916 0.996557 0.000000
vn 0.082461 0.996594 0.000000
vn 0.041490 0.999139 0.000000
vn 0.204648 0.978836 0.000000
vn 0.164042 0.986453 0.000000
vn 0.285455 0.958392 0.000000
vn 0.850126 0.526579 0.000000
vn -0.755697 0.654921 0.000000
vn -0.923964 -0.382479 0.000000
vn -0.923964 -0.382479 0.000000
vn 0.599288 -0.800534 0.000000
vn -0.959835 0.280566 0.000000
vn 0.361308 -0.932447 0.000000
vn 0.361308 -0.932447 0.000000
vn -0.226571 0.973995 0.000000
vn -0.226571 0.973994 0.000000
vn -0.949599 -0.313469 0.000000
vn -0.949598 -0.313469 0.000000
vn 0.532963 0.846139 0.000000
vn 0.860475 -0.509492 0.000000
vn 0.743432 0.668812 0.000000
vn 0.217313 -0.976102 0.000000
vn 0.963266 0.268549 0.000000
vn 0.000000 0.000000 1.000000
vn 0.988169 0.153370 0.000000
vn 0.850126 0.526579 0.000000
vn 0.532963 0.846139 0.000000
vn 0.743432 0.668812 0.000000
# 55 normals

vt 0.930609 0.421346 0.000000
vt 0.921463 0.395784 0.000000
vt 0.897405 0.433123 0.000000
vt 0.419732 0.373399 0.000000
vt 0.843006 0.409362 0.000000
vt 0.880520 0.461621 0.000000
vt 0.890283 0.454612 0.000000
vt 0.375169 0.507856 0.000000
vt 0.912200 0.488745 0.000000
vt 0.886031 0.495454 0.000000
vt 0.871388 0.514585 0.000000
vt 0.256942 0.883102 0.000000
vt 0.842515 0.491479 0.000000
vt 0.830988 0.409290 0.000000
vt 0.004165 0.224273 0.000000
vt 0.929343 0.433629 0.000000
vt 0.929688 0.441130 0.000000
vt 0.941243 0.440026 0.000000
vt 0.694028 0.416592 0.000000
vt 0.930758 0.448355 0.000000
vt 0.942180 0.446190 0.000000
vt 0.699891 0.455155 0.000000
vt 0.932469 0.454911 0.000000
vt 0.943585 0.451896 0.000000
vt 0.708682 0.490856 0.000000
vt 0.934438 0.460349 0.000000
vt 0.945153 0.456803 0.000000
vt 0.718490 0.521561 0.000000
vt 0.936346 0.464536 0.000000
vt 0.946602 0.460806 0.000000
vt 0.727559 0.546608 0.000000
vt 0.937105 0.465977 0.000000
vt 0.947139 0.462250 0.000000
vt 0.730916 0.555647 0.000000
vt 0.908683 0.473289 0.000000
vt 0.911620 0.484776 0.000000
vt 0.508678 0.696589 0.000000
vt 0.885624 0.436431 0.000000
vt 0.346019 0.394097 0.000000
vt 0.911204 0.389109 0.000000
vt 0.506073 0.098005 0.000000
vt 0.937533 0.403810 0.000000
vt 0.942622 0.393620 0.000000
vt 0.702654 0.126230 0.000000
vt 0.936304 0.405902 0.000000
vt 0.946357 0.409927 0.000000
vt 0.726022 0.228261 0.000000
vt 0.934147 0.410280 0.000000
vt 0.944728 0.414062 0.000000
vt 0.715831 0.254131 0.000000
vt 0.932168 0.415525 0.000000
vt 0.943177 0.418664 0.000000
vt 0.706129 0.282929 0.000000
vt 0.941937 0.423543 0.000000
vt 0.698371 0.313453 0.000000
vt 0.929714 0.427146 0.000000
vt 0.941197 0.428297 0.000000
vt 0.693739 0.343199 0.000000
vt 0.940917 0.433665 0.000000
vt 0.691987 0.376790 0.000000
vt 0.968851 0.416983 0.000000
vt 0.981866 0.428868 0.000000
vt 0.989970 0.419993 0.000000
vt 0.998910 0.291242 0.000000
vt 0.961743 0.440622 0.000000
vt 0.967805 0.450999 0.000000
vt 0.860222 0.485247 0.000000
vt 0.950846 0.433515 0.000000
vt 0.944281 0.443581 0.000000
vt 0.713037 0.438834 0.000000
vt 0.960723 0.408131 0.000000
vt 0.815913 0.217022 0.000000
vt 0.928179 0.514541 0.000000
vt 0.871397 0.526603 0.000000
vt 0.257000 0.958299 0.000000
vt 0.876488 0.488149 0.000000
vt 0.288853 0.717697 0.000000
vt 0.849939 0.500929 0.000000
vt 0.122741 0.797661 0.000000
vt 0.970741 0.525391 0.000000
vt 0.943055 0.492227 0.000000
vt 0.933829 0.499929 0.000000
vt 0.647636 0.791403 0.000000
vt 0.970389 0.464340 0.000000
vt 0.982759 0.525322 0.000000
vt 0.953789 0.950285 0.000000
vt 0.909215 0.477103 0.000000
vt 0.493630 0.648582 0.000000
vt 0.314082 0.551707 0.000000
vt 0.705361 0.743212 0.000000
vt 0.948205 0.346771 0.000000
vt 0.938395 0.508213 0.000000
vt 0.676209 0.843233 0.000000
vt 0.961806 0.455928 0.000000
vt 0.822687 0.516086 0.000000
vt 0.852769 0.402353 0.000000
vt 0.140447 0.180872 0.000000
vt 0.612283 0.882830 0.000000
vt 0.830497 0.491407 0.000000
vt 0.001090 0.738081 0.000000
vt 0.940067 0.477403 0.000000
vt 0.686666 0.650456 0.000000
vt 0.896902 0.476597 0.000000
vt 0.416587 0.645415 0.000000
vt 0.887130 0.426509 0.000000
vt 0.355441 0.332015 0.000000
vt 0.926552 0.385595 0.000000
vt 0.602102 0.076013 0.000000
vt 0.947230 0.407809 0.000000
vt 0.731487 0.215005 0.000000
vt 0.976955 0.408109 0.000000
vt 0.917475 0.216883 0.000000
vt 0.987928 0.439245 0.000000
vt 0.986132 0.411702 0.000000
vt 0.955178 0.450688 0.000000
vt 0.781217 0.483301 0.000000
vt 0.942719 0.424662 0.000000
vt 0.703258 0.320460 0.000000
vt 0.928188 0.526559 0.000000
vt 0.612341 0.958026 0.000000
vt 0.861844 0.507280 0.000000
vt 0.197230 0.837397 0.000000
vt 0.887944 0.471071 0.000000
vt 0.360537 0.610837 0.000000
vt 0.961515 0.533093 0.000000
vt 0.820869 0.998910 0.000000
vt 0.982406 0.464271 0.000000
vt 0.951584 0.568289 0.000000
vt 0.883046 0.483813 0.000000
vt 0.329890 0.690562 0.000000
vt 0.866770 0.272412 0.000000
vt 0.922417 0.482416 0.000000
vt 0.576231 0.681825 0.000000
vt 0.934472 0.483815 0.000000
vt 0.651659 0.690576 0.000000
vt 0.637245 0.263288 0.000000
vt 0.570260 0.139771 0.000000
vt 0.663388 0.569947 0.000000
vt 0.651447 0.543754 0.000000
vt 0.639127 0.509723 0.000000
vt 0.628424 0.468707 0.000000
vt 0.619567 0.376564 0.000000
vt 0.621890 0.335998 0.000000
vt 0.490300 0.624717 0.000000
# 144 texture coordinates

o A2-Tollan
usemtl Mat.
f 9/3/1 10/2/1 15/1/1
f 25/7/2 34/6/2 36/5/2
f 22/11/1 26/10/1 30/9/1
f 23/14/3 36/5/4 35/13/3
f 38/18/7 2/17/6 1/16/5
f 39/21/9 3/20/8 2/17/6
f 40/24/11 4/23/10 3/20/8
f 41/27/13 5/26/12 4/23/10
f 42/30/15 6/29/14 5/26/12
f 43/33/16 7/32/16 6/29/14
f 44/36/17 8/35/17 7/32/17
f 45/38/18 9/3/18 8/35/18
f 46/40/19 10/2/19 9/3/19
f 47/43/20 11/42/21 10/2/20
f 48/46/24 12/45/23 11/42/22
f 49/49/26 13/48/25 12/45/23
f 50/52/28 14/51/27 13/48/25
f 51/54/30 15/1/29 14/51/27
f 52/57/32 16/56/31 15/1/29
f 37/59/33 1/16/5 16/56/31
f 54/63/34 18/62/34 17/61/34
f 55/66/35 19/65/35 18/62/35
f 56/69/36 20/68/37 19/65/36
f 53/71/38 17/61/38 20/68/38
f 58/74/39 22/11/39 21/73/39
f 60/76/40 26/10/41 22/11/40
f 24/78/42 35/13/43 34/6/42
f 29/82/44 31/81/45 33/80/44
f 27/85/46 33/80/46 32/84/46
f 59/87/47 30/9/47 26/10/47
f 34/6/1 35/13/1 36/5/1
f 31/81/1 32/84/1 33/80/1
f 18/62/1 19/65/1 20/68/1
f 57/92/48 21/73/48 30/9/48
f 28/94/49 32/84/49 31/81/49
f 23/96/50 25/7/2 36/5/2
f 21/73/51 22/11/1 30/9/1
f 24/99/4 23/14/3 35/13/3
f 37/59/33 38/18/7 1/16/5
f 38/18/7 39/21/9 2/17/6
f 39/21/9 40/24/11 3/20/8
f 40/24/11 41/27/13 4/23/10
f 41/27/13 42/30/15 5/26/12
f 42/30/15 43/33/16 6/29/14
f 43/101/17 44/36/17 7/32/17
f 44/103/18 45/38/18 8/35/18
f 45/105/19 46/40/19 9/3/19
f 46/107/52 47/43/20 10/2/20
f 47/109/22 48/46/24 11/42/22
f 48/46/24 49/49/26 12/45/23
f 49/49/26 50/52/28 13/48/25
f 50/52/28 51/54/30 14/51/27
f 51/54/30 52/57/32 15/1/29
f 52/57/32 37/59/33 16/56/31
f 53/111/53 54/63/34 17/61/34
f 54/113/35 55/66/35 18/62/35
f 55/115/37 56/69/36 19/65/36
f 56/117/38 53/71/38 20/68/38
f 57/119/39 58/74/39 21/73/39
f 58/121/41 60/76/40 22/11/40
f 25/123/43 24/78/42 34/6/42
f 27/125/45 29/82/44 33/80/44
f 28/127/54 27/85/46 32/84/46
f 60/129/47 59/87/47 26/10/47
f 17/61/1 18/62/1 20/68/1
f 59/132/55 57/92/48 30/9/48
f 29/134/49 28/94/49 31/81/49
f 14/51/1 15/1/1 10/2/1
f 10/2/1 13/48/1 14/51/1
f 10/2/1 12/45/1 13/48/1
f 10/2/1 11/42/1 12/45/1
f 9/3/1 2/17/1 3/20/1
f 6/29/1 7/32/1 8/35/1
f 5/26/1 6/29/1 8/35/1
f 4/23/1 5/26/1 8/35/1
f 3/20/1 4/23/1 8/35/1
f 1/16/1 2/17/1 9/3/1
f 16/56/1 1/16/1 9/3/1
f 8/35/1 9/3/1 3/20/1
f 16/56/1 9/3/1 15/1/1

