# WaveFront *.obj file (generated by Cinema 4D)

mtllib ./A37-Second_Tok'Ra_Base_button.mtl

v 0.38157200813293 1.08038353919983 0.03502050042152
v 0.34907901287079 1.14398801326752 0.12814000248909
v 0.34794101119041 1.13922095298767 0.13102099299431
v 0.49724200367928 1.13230299949646 0.2179239988327
v 0.52032798528671 1.10220503807068 0.1677680015564
v 0.36363300681114 1.11662304401398 0.09585399925709
v 0.36337301135063 1.1168999671936 0.09557200223207
v 0.34775099158287 1.13810300827026 0.13134199380875
v 0.34808099269867 1.13749003410339 0.13051599264145
v 0.5460000038147 1.04875600337982 0.07907199859619
v 0.49500301480293 1.12524604797363 0.22137400507927
v 0.54419499635696 1.04203701019287 0.08240900188684
v 0.5442870259285 1.04298603534698 0.08354700356722
v 0.51847100257874 1.09526705741882 0.17130100727081
v 0.51905000209808 1.09611701965332 0.17101399600506
v 0.49437600374222 1.12638401985168 0.22256000339985
v 0.38339298963547 1.08735203742981 0.03212999925017
v 0.34748500585556 1.13866794109344 0.13077799975872
v 0.49523198604584 1.12706899642944 0.22240099310875
v 0.36589398980141 1.12374997138977 0.09237000346184
v 0.37001198530197 1.11642301082611 0.08043599873781
v 0.36335501074791 1.117830991745 0.09498599916697
v 0.34994599223137 1.14433705806732 0.12696799635887
v 0.34992501139641 1.14495301246643 0.12799300253391
v 0.38157099485397 1.08117294311523 0.03516868874431
v 0.5460609793663 1.04926896095276 0.08044700324535
v 0.54626798629761 1.0476039648056 0.07970599830151
v 0.3743439912796 1.10934197902679 0.06839200109243
v 0.54609197378159 1.04832398891449 0.08094900101423
v 0.38334900140762 1.0864599943161 0.03147400170565
v 0.52058500051498 1.10192799568176 0.16804499924183
v 0.36490300297737 1.12271094322205 0.09260000288486
v 0.52059799432755 1.10099697113037 0.16862800717354
v 0.49629500508308 1.13253998756409 0.21967999637127
v 0.46560579538345 1.07505750656128 0.08890713751316
v 0.48249590396881 1.11033165454865 0.14512468874454
v 0.49819040298462 1.09531688690186 0.12559102475643
v 0.46974009275436 1.10219788551331 0.11771091073751
v 0.47298127412796 1.10739409923553 0.13133803009987
v 0.46436277031898 1.10183656215668 0.1126841828227
v 0.42298012971878 1.10574913024902 0.08824568241835
v 0.40726193785667 1.11401188373566 0.09338822215796
v 0.39417025446892 1.11939764022827 0.09448628872633
v 0.41969487071037 1.10586440563202 0.08588979393244
v 0.39725384116173 1.1063814163208 0.0692216604948
v 0.4785158932209 1.0996321439743 0.15015123784542
v 0.49421036243439 1.08461737632751 0.13061757385731
v 0.46576008200645 1.09149837493896 0.12273745983839
v 0.46900126338005 1.09669458866119 0.13636457920074
v 0.46038275957108 1.09113705158234 0.11771073192358
v 0.41900011897087 1.09504961967468 0.09327223151922
v 0.40328192710876 1.10331237316132 0.09841477125883
v 0.39019024372101 1.10869812965393 0.09951283782721
v 0.41571485996246 1.09516489505768 0.09091634303331
v 0.39327383041382 1.09568190574646 0.07424820959568
v 0.48279586434364 1.10854458808899 0.14155820012093
v 0.49489054083824 1.09697365760803 0.12650491297245
v 0.47296580672264 1.10227644443512 0.12043224275112
v 0.46905809640884 1.1068549156189 0.12708400189877
v 0.46294057369232 1.10291016101837 0.11384328454733
v 0.42300066351891 1.10668623447418 0.09025678038597
v 0.4116907119751 1.11263167858124 0.09395705908537
v 0.39645251631737 1.11723577976227 0.09169171005487
v 0.41583833098412 1.10695731639862 0.08516272157431
v 0.39879447221756 1.10735011100769 0.07250336557627
v 0.47125300765038 1.10266613960266 0.1186460852623
v 0.47177681326866 1.10267889499664 0.11908797174692
v 0.48278349637985 1.11001861095428 0.14342644810677
v 0.48283219337463 1.10972845554352 0.14284734427929
v 0.49697035551071 1.09644615650177 0.12576922774315
v 0.49643450975418 1.09671521186829 0.12591761350632
v 0.4639290869236 1.1027215719223 0.11296507716179
v 0.46369814872742 1.10289597511292 0.11315328627825
v 0.42315068840981 1.10657703876495 0.08888339996338
v 0.42315402626991 1.10672914981842 0.08920995891094
v 0.3956586420536 1.11857652664185 0.09265756607056
v 0.39528805017471 1.11892759799957 0.09311133623123
v 0.41761547327042 1.10693502426147 0.08526267856359
v 0.41824167966843 1.10675752162933 0.08538074046373
v 0.39831119775772 1.10737979412079 0.07092440128326
v 0.3980610370636 1.10722255706787 0.07039152830839
v 0.4708631336689 1.10751616954803 0.12866108119488
v 0.47150015830994 1.10760366916656 0.12935183942318
v 0.40999785065651 1.113645195961 0.09351427108049
v 0.40927872061729 1.11386930942535 0.09342190623283
# 85 vertices

vn 0.31662818789482 0.86432141065598 -0.39076235890388
vn 0.32122150063515 0.85581791400909 -0.4054534137249
vn 0.31933170557022 0.85256314277649 -0.41371893882751
vn -0.85659825801849 0.24998860061169 -0.45138138532639
vn -0.90032315254211 0.05572417750955 -0.43163990974426
vn -0.94431525468826 -0.06424237787724 -0.3227099776268
vn 0.95151829719543 0.17267847061157 0.25454887747765
vn 0.9406846165657 0.03137749060988 0.33782836794853
vn 0.91394966840744 0.0471467114985 0.4030796289444
vn 0.77284127473831 0.62838286161423 -0.08860761672258
vn 0.78884738683701 0.60035979747772 -0.1314837038517
vn 0.12530702352524 0.98991882801056 -0.0660213753581
vn -0.78519874811172 -0.60561001300812 0.12922620773315
vn -0.77098143100739 -0.63017904758453 0.09198983758688
vn -0.95205384492874 0.01460211444646 -0.30558201670647
vn -0.93328559398651 0.08957856148481 -0.34778392314911
vn 0.91629940271378 -0.25429773330688 0.30939948558807
vn 0.85140711069107 -0.23291817307472 0.46995231509209
vn 0.96653765439987 -0.04995804652572 0.25161343812943
vn 0.13950516283512 -0.48373040556908 -0.86402726173401
vn 0.15360073745251 -0.44875481724739 -0.88035559654236
vn 0.13860048353672 -0.48833921551704 -0.86157685518265
vn -0.93623411655426 -0.12664148211479 -0.32776135206223
vn -0.3464275598526 -0.70646607875824 0.61716574430466
vn 0.78040313720703 -0.35866406559944 0.51218259334564
vn 0.89133650064468 -0.04870887473226 0.450718075037
vn -0.93928849697113 0.06214190647006 -0.33745455741882
vn -0.95687568187714 -0.09730489552021 -0.27371671795845
vn -0.78197902441025 0.43126407265663 -0.45002254843712
vn -0.88438338041306 0.15356014668941 -0.44077822566032
vn 0.94805979728699 -0.27778136730194 0.15498392283916
vn 0.99326074123383 -0.05793058127165 0.10038521885872
vn -0.57715529203415 0.43083897233009 0.6937358379364
vn -0.3804053068161 0.42909762263298 0.81924790143967
vn -0.6015619635582 0.31324869394302 0.73484593629837
vn 0.98636829853058 0.13290004432201 0.09703104943037
vn -0.37490716576576 0.50076591968536 0.78017824888229
vn -0.74714076519012 0.4196352660656 -0.51544815301895
vn -0.45138043165207 0.70110386610031 -0.55200469493866
vn 0.30652749538422 0.88729250431061 -0.34460547566414
vn -0.74958664178848 0.37994384765625 0.54199874401093
vn -0.77871453762054 0.45005667209625 0.43709573149681
vn 0.13236559927464 -0.50092017650604 -0.85531175136566
vn 0.67077648639679 -0.45311632752419 0.58714938163757
vn 0.75460946559906 0.65459626913071 -0.04547635093331
vn -0.72703063488007 0.58184617757797 -0.36452895402908
vn -0.75507378578186 -0.65336644649506 0.05455178767443
vn 0.97979128360748 0.16925470530987 -0.10659148544073
vn -0.91941678524017 -0.35994899272919 -0.15846017003059
vn -0.89658385515213 -0.43371969461441 -0.08958051353693
vn -0.8942853808403 -0.44675594568253 -0.02574486657977
vn 0.56411439180374 -0.56521785259247 0.60191679000854
vn 0.92692053318024 0.15415047109127 0.34213426709175
vn 0.35338321328163 0.54284226894379 -0.76186782121658
vn -0.13947567343712 0.83089011907578 -0.53867262601852
vn -0.134381249547 0.82312387228012 -0.55173254013062
vn -0.42248219251633 0.51744019985199 0.74415349960327
vn 0.91274523735046 0.02544046007097 0.40773648023605
vn 0.07365231961012 0.0169966891408 0.99713909626007
vn -0.37029442191124 -0.78692048788071 0.49359717965126
vn -0.3528091609478 -0.81333208084106 0.46261936426163
vn 0.3101364672184 0.86954486370087 -0.38432690501213
vn -0.38705286383629 -0.75896424055099 0.52360612154007
vn -0.07927463948727 -0.02264989726245 -0.99659550189972
vn -0.01449418719858 -0.86087161302567 0.50861573219299
vn -0.431362003088 0.49324029684067 0.75540769100189
vn 0.35912492871284 0.80318880081177 -0.475307315588
vn -0.81413906812668 0.36953347921371 -0.44790905714035
vn 0.14130085706711 -0.47448214888573 -0.8688502907753
vn -0.21537259221077 0.46809205412865 0.85703235864639
vn 0.78072571754456 0.00314133404754 0.6248659491539
vn 0.78072518110275 0.00314073800109 0.62486660480499
vn 0.13151328265667 -0.4611691236496 -0.8775120973587
vn 0.13151325285435 -0.46116891503334 -0.8775120973587
vn -0.85569941997528 0.44353359937668 0.26656448841095
vn -0.85569936037064 0.44353353977203 0.26656445860863
vn 0.85689294338226 -0.44276821613312 -0.26399028301239
vn 0.85689288377762 -0.44276821613312 -0.26399025321007
vn 0.40204665064812 -0.50756412744522 -0.76206111907959
vn 0.40204668045044 -0.50756412744522 -0.76206111907959
vn -0.418715685606 -0.2538635134697 -0.87191200256348
vn -0.39231953024864 0.50661450624466 0.76774156093597
vn -0.39231950044632 0.5066145658493 0.76774156093597
vn 0.42556822299957 0.25024577975273 0.86963713169098
vn 0.42556819319725 0.25024577975273 0.86963713169098
vn 0.5039319396019 -0.51367610692978 -0.6943986415863
vn -0.94156962633133 0.23852556943893 -0.23780733346939
vn -0.94156950712204 0.23852553963661 -0.23780728876591
vn 0.31913676857948 0.85775798559189 -0.40299248695374
vn 0.31910926103592 0.85778397321701 -0.40295904874802
vn 0.31913024187088 0.85778880119324 -0.40293222665787
vn 0.31908896565437 0.85777014493942 -0.40300452709198
vn 0.31910994648933 0.857774913311 -0.40297770500183
vn 0.31908240914345 0.85780090093613 -0.40294423699379
vn 0.20472893118858 0.9726026058197 0.1101379096508
vn 0.20474092662334 0.9726055264473 0.11008939146996
vn -0.13174685835838 0.73196262121201 -0.66848599910736
vn -0.13175988197327 0.73195618391037 -0.66849046945572
vn 0.71635115146637 0.50374460220337 -0.48278629779816
vn 0.71635627746582 0.50373649597168 -0.48278686404228
vn 0.48989474773407 0.86515748500824 0.10726561397314
vn 0.48990207910538 0.86514979600906 0.10729292780161
vn 0.06450986862183 0.99664753675461 0.0503206178546
vn 0.06451567262411 0.99664771556854 0.05031018331647
vn -0.01426932774484 0.99924194812775 -0.03622192889452
vn -0.09395743906498 0.98789113759994 -0.12346275895834
vn -0.17124335467815 0.96306455135345 -0.20780411362648
vn 0.47621273994446 0.47101306915283 -0.7425417304039
vn 0.47621169686317 0.47101855278015 -0.74253880977631
vn 0.01171326823533 0.99981510639191 0.01524803321809
vn 0.01174535416067 0.99981546401978 0.01520072668791
vn 0.0523315295577 0.60390847921371 -0.79533398151398
vn 0.05231039971113 0.60388439893723 -0.79535353183746
vn 0.76084166765213 0.60999995470047 -0.22140516340733
vn 0.76083999872208 0.61000156402588 -0.22140599787235
vn 0.4934309720993 0.86329913139343 0.10602102428675
vn 0.49343231320381 0.86329758167267 0.10602711886168
vn 0.53405183553696 0.46737790107727 -0.70451873540878
vn 0.53405672311783 0.46735960245132 -0.7045271396637
vn -0.21510314941406 0.85721349716187 -0.46788424253464
vn -0.21505682170391 0.85722410678864 -0.4678860604763
vn 0.06955382972956 0.99615526199341 0.05326386541128
vn 0.06957580149174 0.99615573883057 0.05322473868728
vn 0.05586997419596 0.60201799869537 -0.79652553796768
vn 0.05586198344827 0.60200899839401 -0.79653292894363
vn 0.48124849796295 0.47055232524872 -0.73958122730255
vn 0.48125043511391 0.47054213285446 -0.73958647251129
vn 0.56765288114548 0.48848995566368 -0.66268217563629
vn 0.64732474088669 0.49984601140022 -0.57543432712555
vn 0.7169668674469 0.50414299964905 -0.48145443201065
vn 0.67749774456024 0.7352306842804 -0.02080227248371
vn 0.67749124765396 0.73523634672165 -0.02081110700965
vn -0.17056809365749 0.96346521377563 -0.20649802684784
vn -0.17058761417866 0.9634638428688 -0.20648774504662
vn 0.34104439616203 0.49461352825165 -0.79940366744995
vn 0.34104496240616 0.49461823701859 -0.79940050840378
vn 0.31907802820206 0.85777676105499 -0.40299913287163
vn 0.31910842657089 0.85777676105499 -0.40297502279282
vn 0.31909707188606 0.85777419805527 -0.40298947691917
vn 0.31907412409782 0.85779422521591 -0.40296503901482
vn 0.31909316778183 0.85779166221619 -0.40295538306236
vn 0.31906276941299 0.85779166221619 -0.40297946333885
vn 0.3191052377224 0.85779678821564 -0.40293502807617
vn 0.31910905241966 0.85779064893723 -0.40294498205185
vn 0.31908145546913 0.85782587528229 -0.40289178490639
vn 0.31920817494392 0.8576974272728 -0.40306502580643
vn 0.31914579868317 0.85774606466293 -0.40301078557968
vn 0.31912064552307 0.8577629327774 -0.40299481153488
vn 0.3191793859005 0.85773324966431 -0.40301156044006
vn 0.31908187270164 0.85778307914734 -0.40298256278038
vn 0.78072625398636 0.00314193009399 0.62486529350281
vn 0.13151326775551 -0.46116924285889 -0.87751185894012
vn -0.85569930076599 0.44353356957436 0.26656445860863
vn 0.40204662084579 -0.50756412744522 -0.76206111907959
vn -0.39231956005096 0.50661444664001 0.76774156093597
vn 0.5039319396019 -0.51367610692978 -0.69439858198166
vn -0.94156950712204 0.23852553963661 -0.23780730366707
vn 0.20471692085266 0.97259962558746 0.11018643528223
vn -0.1317338347435 0.73196905851364 -0.66848146915436
vn 0.71634590625763 0.50375258922577 -0.48278561234474
vn 0.48988726735115 0.86516493558884 0.10723827034235
vn -0.1712496727705 0.9630640745163 -0.20780062675476
vn 0.47621363401413 0.47100746631622 -0.74254459142685
vn 0.01168118230999 0.99981474876404 0.01529533974826
vn 0.05235264077783 0.60393249988556 -0.79531425237656
vn 0.7608430981636 0.60999828577042 -0.22140426933765
vn 0.49342960119247 0.86330062150955 0.10601492971182
vn 0.53404688835144 0.46739611029625 -0.70451027154922
vn -0.21514946222305 0.8572028875351 -0.46788245439529
vn 0.06953184306622 0.99615460634232 0.05330297723413
vn 0.05587796121836 0.60202699899673 -0.79651814699173
vn 0.71696847677231 0.50414055585861 -0.48145458102226
vn 0.67750412225723 0.73522490262985 -0.02079343236983
vn -0.17054855823517 0.96346640586853 -0.20650826394558
vn 0.34104382991791 0.49460881948471 -0.79940682649612
# 175 normals

vt 0.72285437583923 0.28400754928589 0
vt 0.59138119220734 0.21649479866028 0
vt 0.69864153862 0.14861667156219 0
vt 0 1 0
vt 0.67762196063995 0.31571006774902 0
vt 0.7492344379425 0.2640266418457 0
vt 0.75144219398499 0.26801896095276 0
vt 0.72223222255707 0.28305125236511 0
vt 0.66230058670044 0.18069076538086 0
vt 0.66187286376953 0.18001878261566 0
vt 0.69963836669922 0.15468657016754 0
vt 0.66247868537903 0.18097066879272 0
vt 0.59404671192169 0.2209734916687 0
vt 0.69141674041748 0.15221202373505 0
vt 0.69276684522629 0.15151810646057 0
vt 0.74598091840744 0.27104449272156 0
vt 0.72266924381256 0.283731341362 0
vt 0.67767208814621 0.3151239156723 0
vt 0.67422717809677 0.31141841411591 0
vt 0.6596451997757 0.17652404308319 0
vt 0.59366428852081 0.2202832698822 0
vt 0.59513407945633 0.21309149265289 0
vt 0.59613353013992 0.21290457248688 0
vt 0.6820792555809 0.31249070167542 0
vt 0.71999728679657 0.27946412563324 0
vt 0.71018147468567 0.28463697433472 0
vt 0.74815964698792 0.26371717453003 0
vt 0.59138631820679 0.21631741523743 0
vt 0.65923035144806 0.17587757110596 0
vt 0.70042514801025 0.15346348285675 0
vt 0.59266871213913 0.22061610221863 0
vt 0.75055211782455 0.26873028278351 0
vt 0.69752979278564 0.14911270141602 0
vt 0.75133562088013 0.2683070898056 0
vt 0.70077395439148 0.29060852527618 0
vt 0.71937823295593 0.27870786190033 0
vt 0.59679573774338 0.21201014518738 0
vt 0.75166863203049 0.26775002479553 0
vt 0.74884474277496 0.26314532756805 0
vt 0.75162220001221 0.26832628250122 0
vt 0.59307765960693 0.22157406806946 0
vt 0.69779992103577 0.14983880519867 0
vt 0.68270176649094 0.31192743778229 0
vt 0.67822599411011 0.31578469276428 0
vt 0.6746152639389 0.31079864501953 0
vt 0.7469562292099 0.27108013629913 0
vt 0.64864242076874 0.24589896202087 0
vt 0.74537378549576 0.27171385288239 0
vt 0.71743178367615 0.35333502292633 0
vt 0.74166464805603 0.33904373645782 0
vt 0.73556250333786 0.32869601249695 0
vt 0.743239402771 0.36791515350342 0
vt 0.75512027740479 0.367267370224 0
vt 0.71162343025208 0.36361587047577 0
vt 0.75618827342987 0.28593981266022 0
vt 0.74519741535187 0.3074609041214 0
vt 0.75520122051239 0.31618022918701 0
vt 0.71610140800476 0.32544159889221 0
vt 0.71715188026428 0.3372288942337 0
vt 0.6961122751236 0.32131624221802 0
vt 0.69531607627869 0.33604884147644 0
vt 0.75039547681808 0.27610230445862 0
vt 0.75993299484253 0.32797205448151 0
vt 0.78444457054138 0.31343698501587 0
vt 0.77842974662781 0.30329358577728 0
vt 0.78431332111359 0.34036183357239 0
vt 0.79632580280304 0.34042048454285 0
vt 0.75452649593353 0.33861017227173 0
vt 0.76173341274261 0.32790696620941 0
vt 0.78344142436981 0.33893859386444 0
vt 0.78310763835907 0.33838713169098 0
vt 0.78355848789215 0.31497061252594 0
vt 0.76247584819794 0.32788896560669 0
vt 0.78320956230164 0.31559216976166 0
vt 0.74095129966736 0.36423587799072 0
vt 0.74187219142914 0.36571252346039 0
vt 0.74054229259491 0.341139793396 0
vt 0.73978114128113 0.34256994724274 0
vt 0.71990871429443 0.35331201553345 0
vt 0.72158336639404 0.35330379009247 0
vt 0.7022716999054 0.32024431228638 0
vt 0.70026671886444 0.32065868377686 0
vt 0.71578693389893 0.32412207126617 0
vt 0.7157187461853 0.32330739498138 0
vt 0.74427151679993 0.30656230449677 0
vt 0.74365448951721 0.30606162548065 0
vt 0.7525292634964 0.28985154628754 0
vt 0.75063395500183 0.29169583320618 0
vt 0.78226935863495 0.33701837062836 0
vt 0.78235518932343 0.31706750392914 0
vt 0.76421296596527 0.32782649993896 0
vt 0.75383710861206 0.28813421726227 0
vt 0.69856476783752 0.32070934772491 0
vt 0.71595001220703 0.32459080219269 0
vt 0.74457216262817 0.30694377422333 0
vt 0.74087202548981 0.34053361415863 0
vt 0.7191743850708 0.35332465171814 0
vt 0.74228298664093 0.36638188362122 0
vt 0.71132904291153 0.34298717975616 0
vt 0.75354534387588 0.33839559555054 0
vt 0.73743116855621 0.37819612026215 0
vt 0.76912987232208 0.29409897327423 0
vt 0.69031655788422 0.31147992610931 0
vt 0.75391811132431 0.31782865524292 0
vt 0.79645723104477 0.31349515914917 0
vt 0.77890753746033 0.35099983215332 0
# 106 texture coordinates

o Default
usemtl DHD
f 11/3/1 13/2/2 6/1/1
f 1/5/3 6/1/3 13/2/2
f 22/8/6 18/7/5 2/6/4
f 4/11/9 33/10/8 31/9/7
f 26/13/11 5/12/10 31/9/10
f 24/16/12 34/15/12 4/14/12
f 6/1/14 7/17/14 1/5/13
f 22/8/6 30/19/16 25/18/15
f 29/21/19 15/20/18 13/2/17
f 30/24/22 10/23/21 27/22/20
f 23/27/23 21/26/23 32/25/23
f 1/5/24 12/28/24 13/2/24
f 14/29/25 13/2/17 15/20/18
f 4/11/9 34/30/26 33/10/8
f 7/17/28 25/18/15 1/5/27
f 32/25/30 2/6/4 23/27/29
f 34/30/26 15/20/18 33/10/8
f 27/31/32 13/2/17 12/28/31
f 8/34/35 16/33/34 3/32/33
f 33/10/8 26/13/36 31/9/7
f 34/15/37 3/32/33 16/33/34
f 21/26/38 20/36/38 28/35/38
f 30/19/39 32/25/39 21/26/39
f 30/24/40 26/37/40 10/23/40
f 2/6/42 18/7/41 3/38/33
f 1/5/43 30/24/22 27/22/20
f 15/20/18 16/33/44 14/29/25
f 31/9/10 5/12/10 4/11/45
f 22/8/6 32/25/30 30/19/16
f 29/21/19 33/10/8 15/20/18
f 23/27/29 2/6/4 24/39/46
f 9/40/47 7/17/14 6/1/14
f 3/38/33 18/7/41 8/34/35
f 26/13/36 27/31/32 10/41/48
f 18/7/50 22/8/6 9/40/49
f 9/40/49 8/34/51 18/7/50
f 15/20/18 19/42/52 16/33/44
f 14/29/53 16/33/53 11/3/53
f 30/24/54 17/43/54 26/37/54
f 30/24/16 1/5/27 25/44/15
f 28/35/55 17/45/55 21/26/55
f 21/26/56 23/27/56 20/36/56
f 29/21/19 27/31/32 26/13/36
f 34/15/37 2/46/57 3/32/33
f 33/10/8 29/21/19 26/13/36
f 27/31/32 29/21/19 13/2/17
f 34/30/26 19/42/58 15/20/18
f 7/17/28 22/8/6 25/18/15
f 6/1/59 35/47/59 13/2/59
f 16/33/60 8/34/61 9/40/60
f 11/3/1 6/1/1 9/40/62
f 11/3/63 16/33/60 9/40/60
f 13/2/64 35/47/64 6/1/64
f 11/3/65 13/2/65 14/29/65
f 34/15/37 24/16/66 2/46/57
f 22/8/6 2/6/4 32/25/30
f 24/16/67 4/14/67 23/48/67
f 21/26/68 17/45/68 30/19/68
f 22/8/6 7/17/28 9/40/49
f 1/5/43 27/22/20 12/28/69
f 34/30/37 16/33/34 19/42/70
f 47/51/71 37/50/72 36/49/71
f 48/53/73 38/52/74 37/50/73
f 46/54/75 36/49/76 38/52/75
f 50/57/77 40/56/78 39/55/77
f 51/59/79 41/58/80 40/56/79
f 52/61/81 42/60/81 41/58/81
f 49/62/82 39/55/83 42/60/82
f 54/65/84 44/64/85 43/63/84
f 55/67/86 45/66/86 44/64/86
f 53/68/87 43/63/88 45/66/87
f 80/71/91 81/70/90 77/69/89
f 76/73/93 77/69/89 79/72/92
f 78/74/94 79/72/92 81/70/90
f 71/77/95 67/76/96 58/75/95
f 69/79/97 71/77/98 57/78/97
f 67/76/99 69/79/100 56/80/99
f 75/83/101 84/82/102 62/81/101
f 73/85/105 75/83/104 61/84/103
f 82/87/107 73/85/105 60/86/106
f 84/82/108 82/87/109 59/88/108
f 78/74/110 80/71/111 65/89/110
f 76/73/112 78/74/113 64/90/112
f 80/71/114 76/73/115 63/91/114
f 43/63/116 44/64/117 79/72/116
f 44/64/118 45/66/119 81/70/118
f 45/66/120 43/63/121 77/69/120
f 42/60/122 39/55/123 83/92/122
f 41/58/124 42/60/125 85/93/124
f 40/56/128 41/58/127 74/94/126
f 39/55/130 40/56/128 72/95/129
f 36/49/131 37/50/132 70/96/131
f 38/52/133 36/49/134 68/97/133
f 37/50/135 38/52/136 66/98/135
f 71/77/139 70/96/138 66/98/137
f 69/79/141 68/97/140 70/96/138
f 67/76/142 66/98/137 68/97/140
f 75/83/145 74/94/144 85/93/143
f 73/85/147 72/95/146 74/94/144
f 82/87/149 83/92/148 72/95/146
f 84/82/150 85/93/143 83/92/148
f 46/99/151 47/51/71 36/49/71
f 47/100/152 48/53/73 37/50/73
f 48/101/153 46/54/75 38/52/75
f 49/102/77 50/57/77 39/55/77
f 50/57/154 51/59/79 40/56/79
f 51/59/81 52/61/81 41/58/81
f 52/103/155 49/62/82 42/60/82
f 53/104/84 54/65/84 43/63/84
f 54/105/156 55/67/86 44/64/86
f 55/106/157 53/68/87 45/66/87
f 76/73/93 80/71/91 77/69/89
f 78/74/94 76/73/93 79/72/92
f 80/71/91 78/74/94 81/70/90
f 57/78/158 71/77/95 58/75/95
f 56/80/159 69/79/97 57/78/97
f 58/75/160 67/76/99 56/80/99
f 61/84/161 75/83/101 62/81/101
f 60/86/106 73/85/105 61/84/103
f 59/88/162 82/87/107 60/86/106
f 62/81/163 84/82/108 59/88/108
f 64/90/164 78/74/110 65/89/110
f 63/91/165 76/73/112 64/90/112
f 65/89/166 80/71/114 63/91/114
f 77/69/167 43/63/116 79/72/116
f 79/72/168 44/64/118 81/70/118
f 81/70/169 45/66/120 77/69/120
f 85/93/170 42/60/122 83/92/122
f 74/94/171 41/58/124 85/93/124
f 72/95/129 40/56/128 74/94/126
f 83/92/172 39/55/130 72/95/129
f 68/97/173 36/49/131 70/96/131
f 66/98/174 38/52/133 68/97/133
f 70/96/175 37/50/135 66/98/135
f 67/76/142 71/77/139 66/98/137
f 71/77/139 69/79/141 70/96/138
f 69/79/141 67/76/142 68/97/140
f 84/82/150 75/83/145 85/93/143
f 75/83/145 73/85/147 74/94/144
f 73/85/147 82/87/149 72/95/146
f 82/87/149 84/82/150 83/92/148

