# WaveFront *.obj file (generated by Cinema 4D)

mtllib ./A25-P3X-744_(Tagrea).mtl

v -0.056527 4.366609 0.186630
v -0.235399 4.320149 0.186630
v -0.218468 4.307544 0.186630
v -0.174845 4.278873 0.186630
v -0.089823 4.228777 0.186630
v 0.166482 4.090945 0.186630
v 0.166482 4.129275 0.186630
v 0.061560 4.208644 0.186630
v 0.227268 4.366609 0.186630
v 0.219807 4.392845 0.186630
v 0.215653 4.405326 0.186630
v 0.153319 4.410746 0.186630
v 0.235399 4.308534 0.186630
v 0.233148 4.330022 0.186630
v -0.056527 4.366609 0.093463
v -0.235399 4.320149 0.093463
v -0.218468 4.307544 0.093463
v -0.174845 4.278873 0.093463
v -0.089823 4.228777 0.093463
v 0.166482 4.090945 0.093463
v 0.166482 4.129275 0.093463
v 0.061560 4.208644 0.093463
v 0.227268 4.366609 0.093463
v 0.219807 4.392845 0.093463
v 0.215653 4.405326 0.093463
v 0.153319 4.410746 0.093463
v 0.235399 4.308534 0.093463
v 0.233148 4.330022 0.093463
# 28 vertices

vn 0.000000 0.000000 1.000000
vn 0.000000 0.000000 1.000000
vn 0.990073 0.140556 0.000000
vn 0.971848 0.235607 0.000000
vn 0.980350 0.197266 0.000000
vn 0.994560 0.104165 0.000000
vn 0.992484 0.122378 0.000000
vn -0.251398 0.967884 0.000000
vn -0.597163 -0.802120 0.000000
vn -0.565434 -0.824794 0.000000
vn -0.581412 -0.813609 0.000000
vn -0.521649 -0.853160 0.000000
vn -0.535521 -0.844522 0.000000
vn -0.485045 -0.874489 0.000000
vn -0.496386 -0.868102 0.000000
vn -0.473624 -0.880727 0.000000
vn 1.000000 0.000000 0.000000
vn 0.603292 0.797521 0.000000
vn 0.800941 0.598744 0.000000
vn 0.953375 0.301789 0.000000
vn 0.957724 0.287688 0.000000
vn 0.948819 0.315821 0.000000
vn 0.086635 0.996240 0.000000
vn 0.086635 0.996240 0.000000
vn -0.779716 -0.626133 0.000000
vn 0.994560 0.104165 0.000000
vn -0.597163 -0.802120 0.000000
vn 0.603292 0.797521 0.000000
vn 0.800941 0.598744 0.000000
vn 0.086635 0.996240 0.000000
# 30 normals

vt 0.906116 0.447979 0.000000
vt 0.902151 0.426203 0.000000
vt 0.896596 0.422337 0.000000
vt 0.000000 1.000000 0.000000
vt 0.922370 0.423835 0.000000
vt 0.920347 0.420601 0.000000
vt 0.920345 0.443376 0.000000
vt 0.925488 0.429336 0.000000
vt 0.931942 0.426160 0.000000
vt 0.928814 0.420212 0.000000
vt 0.919209 0.481138 0.000000
vt 0.896368 0.502820 0.000000
vt 0.901250 0.507963 0.000000
vt 0.896121 0.499199 0.000000
vt 0.888949 0.499483 0.000000
vt 0.895877 0.490355 0.000000
vt 0.888737 0.490420 0.000000
vt 0.896090 0.473509 0.000000
vt 0.888865 0.473431 0.000000
vt 0.889281 0.422277 0.000000
vt 0.908535 0.422769 0.000000
vt 0.913409 0.445794 0.000000
vt 0.926101 0.478460 0.000000
vt 0.927408 0.433548 0.000000
vt 0.933986 0.430557 0.000000
vt 0.928281 0.435663 0.000000
vt 0.934935 0.432660 0.000000
vt 0.925475 0.448654 0.000000
vt 0.913118 0.420601 0.000000
vt 0.926860 0.416806 0.000000
vt 0.924091 0.486281 0.000000
vt 0.889116 0.503178 0.000000
vt 0.903264 0.416031 0.000000
vt 0.933411 0.440941 0.000000
vt 0.913115 0.443375 0.000000
# 35 texture coordinates

o A25___P3X-744_(Tagrea)
usemtl Mat.
f 6/3/1 7/2/1 8/1/1
f 12/7/1 13/6/2 14/5/1
f 23/9/5 9/8/4 14/5/3
f 28/10/7 14/5/3 13/6/6
f 16/13/8 2/12/8 1/11/8
f 17/15/11 3/14/10 2/12/9
f 18/17/13 4/16/12 3/14/10
f 19/19/15 5/18/14 4/16/12
f 20/20/16 6/3/16 5/18/14
f 21/21/17 7/2/17 6/3/17
f 22/22/18 8/1/18 7/2/18
f 15/23/19 1/11/19 8/1/19
f 24/25/21 10/24/20 9/8/4
f 25/27/22 11/26/22 10/24/20
f 26/28/23 12/7/24 11/26/23
f 27/29/25 13/6/25 12/7/25
f 28/10/7 23/9/5 14/5/3
f 27/30/26 28/10/7 13/6/6
f 15/31/8 16/13/8 1/11/8
f 16/32/27 17/15/11 2/12/9
f 17/15/11 18/17/13 3/14/10
f 18/17/13 19/19/15 4/16/12
f 19/19/15 20/20/16 5/18/14
f 20/33/17 21/21/17 6/3/17
f 21/21/28 22/22/18 7/2/18
f 22/22/29 15/23/19 8/1/19
f 23/9/5 24/25/21 9/8/4
f 24/25/21 25/27/22 10/24/20
f 25/34/30 26/28/23 11/26/23
f 26/35/25 27/29/25 12/7/25
f 4/16/1 5/18/1 1/11/1
f 1/11/1 2/12/1 3/14/1
f 8/1/1 1/11/1 5/18/1
f 10/24/1 11/26/1 12/7/1
f 9/8/1 10/24/1 12/7/1
f 3/14/1 4/16/1 1/11/1
f 14/5/1 9/8/1 12/7/1
f 5/18/1 6/3/1 8/1/1

