# WaveFront *.obj file (generated by Cinema 4D)

mtllib ./A23-Shades_of_Grey.mtl

v -0.070706 4.394733 0.186255
v -0.157983 4.109701 0.186255
v 0.157983 4.114672 0.186255
v 0.127049 4.379818 0.186255
v 0.065734 4.340599 0.186255
v 0.075125 4.211892 0.186255
v -0.054687 4.211340 0.186255
v -0.015467 4.348332 0.186255
v -0.070706 4.394733 0.092760
v -0.157983 4.109701 0.092760
v 0.157983 4.114672 0.092760
v 0.127049 4.379818 0.092760
v 0.065734 4.340599 0.092760
v 0.075125 4.211892 0.092760
v -0.054687 4.211340 0.092760
v -0.015467 4.348332 0.092760
# 16 vertices

vn 0.000000 0.000000 1.000000
vn 0.643192 0.765705 0.000000
vn -0.956179 0.292783 0.000000
vn -0.956179 0.292783 0.000000
vn 0.015732 -0.999876 0.000000
vn 0.993263 0.115880 0.000000
vn -0.538840 0.842408 0.000000
vn -0.538840 0.842408 0.000000
vn -0.997349 -0.072769 0.000000
vn -0.004254 0.999991 0.000000
vn 0.961378 -0.275233 0.000000
vn 0.961378 -0.275233 0.000000
vn 0.643192 0.765705 0.000000
vn 0.993263 0.115880 0.000000
# 14 normals

vt 0.912574 0.475810 0.000000
vt 0.883346 0.488086 0.000000
vt 0.930702 0.500981 0.000000
vt 0.000000 1.000000 0.000000
vt 0.935162 0.493865 0.000000
vt 0.932290 0.509647 0.000000
vt 0.881083 0.498284 0.000000
vt 0.896205 0.429188 0.000000
vt 0.885139 0.426772 0.000000
vt 0.936502 0.425170 0.000000
vt 0.935608 0.416208 0.000000
vt 0.934424 0.433897 0.000000
vt 0.941542 0.435592 0.000000
vt 0.913158 0.442502 0.000000
vt 0.923461 0.448560 0.000000
vt 0.924383 0.470313 0.000000
vt 0.941929 0.486554 0.000000
vt 0.943556 0.502104 0.000000
vt 0.872281 0.485670 0.000000
vt 0.895311 0.420226 0.000000
vt 0.943620 0.426865 0.000000
vt 0.937461 0.440019 0.000000
# 22 texture coordinates

o A23___Shades_of_Grey
usemtl Mat.
f 1/3/1 2/2/1 7/1/1
f 9/6/2 1/3/2 8/5/2
f 10/7/3 2/2/4 1/3/3
f 11/9/5 3/8/5 2/2/5
f 12/11/6 4/10/6 3/8/6
f 13/13/7 5/12/8 4/10/7
f 14/15/9 6/14/9 5/12/9
f 15/16/10 7/1/10 6/14/10
f 16/17/11 8/5/12 7/1/11
f 16/18/13 9/6/2 8/5/2
f 9/6/4 10/7/3 1/3/3
f 10/19/5 11/9/5 2/2/5
f 11/20/14 12/11/6 3/8/6
f 12/21/8 13/13/7 4/10/7
f 13/22/9 14/15/9 5/12/9
f 14/15/10 15/16/10 6/14/10
f 15/16/12 16/17/11 7/1/11
f 6/14/1 7/1/1 2/2/1
f 6/14/1 3/8/1 4/10/1
f 3/8/1 6/14/1 2/2/1
f 5/12/1 6/14/1 4/10/1
f 8/5/1 1/3/1 7/1/1

