# WaveFront *.obj file (generated by Cinema 4D)

mtllib ./A21-P3R-233_(Grace_of_God)_button_light.mtl

v 0.38381001353264 1.08748805522919 0.03210499882698
v 0.36589398980141 1.12374997138977 0.09237000346184
v 0.35032001137733 1.14454698562622 0.12706600129604
v 0.3743439912796 1.10934197902679 0.06839200109243
v 0.54579401016235 1.04957795143127 0.08024500310421
v 0.52032798528671 1.10220503807068 0.1677680015564
v 0.49724200367928 1.13230299949646 0.2179239988327
v 0.43966862559319 1.0881279706955 0.06669552624226
v 0.44678795337677 1.09296846389771 0.08205351233482
v 0.45627319812775 1.08813619613647 0.07953730225563
v 0.46480187773705 1.08161735534668 0.07284687459469
v 0.45098632574081 1.08255088329315 0.06407749652863
v 0.44960680603981 1.1237815618515 0.14699178934097
v 0.44377771019936 1.125816822052 0.14663502573967
v 0.44347968697548 1.13122069835663 0.15741170942783
v 0.44284847378731 1.13250732421875 0.15954476594925
v 0.44515752792358 1.1310487985611 0.15835747122765
v 0.46021994948387 1.12085688114166 0.14923201501369
v 0.45125505328178 1.12381875514984 0.14834062755108
v 0.46442911028862 1.11333048343658 0.13715308904648
v 0.47368121147156 1.10512852668762 0.12759341299534
v 0.47764307260513 1.10117018222809 0.1225908473134
v 0.48149195313454 1.09672117233276 0.11650171130896
v 0.4838815331459 1.09326839447021 0.11131481826305
v 0.48809462785721 1.08566951751709 0.09909128397703
v 0.45577824115753 1.11891531944275 0.14184677600861
v 0.4796667098999 1.09651064872742 0.11466333270073
v 0.47504439949989 1.10164678096771 0.12155452370644
v 0.46736428141594 1.10902917385101 0.13065929710865
# 29 vertices

vn 0.32223701477051 0.84976851940155 -0.41720116138458
vn 0.32223662734032 0.84976869821548 -0.41720110177994
vn 0.32223796844482 0.84976762533188 -0.41720217466354
vn 0.32223257422447 0.8497673869133 -0.41720688343048
vn 0.32223325967789 0.8497673869133 -0.41720640659332
vn 0.32223379611969 0.84976768493652 -0.41720533370972
vn 0.31906926631927 0.85911309719086 -0.40014946460724
vn 0.32419240474701 0.85064691305161 -0.41388294100761
vn 0.31311360001564 0.8641522526741 -0.39395520091057
vn 0.32516828179359 0.85108137130737 -0.41222107410431
vn 0.30832377076149 0.87159901857376 -0.38111886382103
vn 0.30845442414284 0.87107521295547 -0.38220939040184
vn 0.32404431700706 0.84539943933487 -0.42461165785789
vn 0.32223862409592 0.84976708889008 -0.41720271110535
vn 0.32223427295685 0.84977000951767 -0.41720026731491
vn 0.32222598791122 0.84976994991302 -0.41720685362816
vn 0.32221758365631 0.8497679233551 -0.41721737384796
vn 0.32222548127174 0.84977132081985 -0.41720435023308
vn 0.32222416996956 0.84976744651794 -0.41721314191818
vn 0.32222020626068 0.84976762533188 -0.41721606254578
vn 0.32223698496819 0.84976881742477 -0.41720041632652
vn 0.32223746180534 0.84976947307587 -0.41719895601273
vn 0.32223439216614 0.84976953268051 -0.41720107197762
vn 0.32223483920097 0.84976780414581 -0.41720420122147
vn 0.32223311066628 0.8497656583786 -0.41721007227898
vn 0.32223588228226 0.84976851940155 -0.41720208525658
vn 0.32223603129387 0.84977006912231 -0.41719874739647
vn 0.32223978638649 0.84976589679718 -0.41720423102379
vn 0.32223388552666 0.84976905584335 -0.41720241308212
# 29 normals

vt 0.88061141967773 0.0550833940506 0
vt 0.81597566604614 0.05599963665009 0
vt 0.83234453201294 0.10312414169312 0
vt 0 1 0
vt 0.863361120224 0.15891861915588 0
vt 0.82248342037201 0.17683053016663 0
vt 0.88188529014587 0.13181614875793 0
vt 0.7587696313858 0.79456406831741 0
vt 0.4076817035675 0.02456760406494 0
vt 0.14521256089211 0.29473865032196 0
vt 0.82124936580658 0.71813142299652 0
vt 0.01705918088555 0.48840737342834 0
vt 0.66959822177887 0.91587686538696 0
vt 0.94063067436218 0.59771531820297 0
vt 0.91450428962708 0.09295237064362 0
vt 0.91139233112335 0.12028741836548 0
vt 0.92286717891693 0.09473156929016 0
vt 0.95481407642364 0.07471239566803 0
vt 0.93282437324524 0.09984529018402 0
vt 0.96980381011963 0.05307304859161 0
vt 0.94887495040894 0.06635570526123 0
vt 0.79727470874786 0.20352435112 0
vt 0.79161643981934 0.19731509685516 0
vt 0.83416974544525 0.20965075492859 0
vt 0.76209378242493 0.24492585659027 0
vt 0.7512458562851 0.24942564964294 0
vt 0.75592827796936 0.24043822288513 0
vt 0.76741516590118 0.19428789615631 0
vt 0.86012363433838 0.13613104820251 0
vt 0.99915874004364 0.00171136856079 0
# 30 texture coordinates

o 4_DHD_symbols_outer_Cylinder
usemtl Symbols
f 10/3/3 11/2/2 12/1/1
f 29/7/6 26/6/5 20/5/4
f 6/10/9 5/9/8 2/8/7
f 5/9/8 4/11/10 2/8/7
f 3/13/12 7/12/11 6/10/9
f 2/8/7 3/13/12 6/10/9
f 5/9/8 1/14/13 4/11/10
f 10/3/3 12/1/1 8/15/14
f 28/17/16 29/7/6 21/16/15
f 28/17/16 22/19/18 23/18/17
f 27/21/20 23/18/17 24/20/19
f 26/6/5 13/23/22 19/22/21
f 17/25/24 18/24/23 19/22/21
f 15/27/26 16/26/25 17/25/24
f 13/23/22 14/28/27 15/27/26
f 19/22/21 13/23/22 15/27/26
f 9/29/28 10/3/3 8/15/14
f 22/19/18 28/17/16 21/16/15
f 27/21/20 28/17/16 23/18/17
f 25/30/29 27/21/20 24/20/19
f 20/5/4 26/6/5 19/22/21
f 17/25/24 19/22/21 15/27/26
f 21/16/15 29/7/6 20/5/4

